# This file uses centimeters as units for non-parametric coordinates.

mtllib Coke.mtl
g default
v 0.226173 0.013507 -0.078053
v 0.192502 0.013255 -0.146474
v 0.140128 0.012972 -0.200810
v 0.074179 0.012686 -0.235741
v 0.001109 0.012426 -0.247848
v -0.071927 0.012216 -0.235946
v -0.137782 0.012078 -0.201200
v -0.190009 0.012024 -0.147012
v -0.223495 0.012060 -0.078685
v -0.234963 0.012184 -0.002908
v -0.223290 0.012381 0.072902
v -0.189618 0.012633 0.141323
v -0.137245 0.012916 0.195659
v -0.071296 0.013201 0.230589
v 0.001774 0.013462 0.242697
v 0.074810 0.013671 0.230795
v 0.140665 0.013810 0.196049
v 0.192892 0.013864 0.141861
v 0.226378 0.013827 0.073534
v 0.237846 0.013704 -0.002243
v 0.227694 0.629137 -0.077017
v 0.194023 0.628884 -0.145438
v 0.141649 0.628602 -0.199774
v 0.075700 0.628317 -0.234704
v 0.002631 0.628056 -0.246812
v -0.070406 0.627847 -0.234910
v -0.136261 0.627708 -0.200164
v -0.188488 0.627654 -0.145976
v -0.221974 0.627691 -0.077649
v -0.233442 0.627814 -0.001871
v -0.221769 0.628011 0.073938
v -0.188098 0.628263 0.142359
v -0.135724 0.628546 0.196695
v -0.069774 0.628832 0.231626
v 0.003295 0.629092 0.243733
v 0.076331 0.629302 0.231831
v 0.142186 0.629440 0.197085
v 0.194413 0.629494 0.142897
v 0.227900 0.629458 0.074570
v 0.239367 0.629334 -0.001207
v 0.001442 0.012944 -0.002576
v 0.002963 0.628574 -0.001539
vt 0.027671 0.008400
vt 0.078200 0.008056
vt 0.078201 0.477266
vt 0.027671 0.477610
vt 0.156760 0.007672
vt 0.156760 0.476882
vt 0.255660 0.007285
vt 0.255661 0.476495
vt 0.365220 0.006933
vt 0.365221 0.476144
vt 0.474716 0.006651
vt 0.474716 0.475862
vt 0.573428 0.006467
vt 0.573428 0.475676
vt 0.651694 0.006397
vt 0.651695 0.475607
vt 0.701854 0.006449
vt 0.701854 0.475659
vt 0.010266 0.560001
vt 0.011369 0.560149
vt 0.011368 0.969952
vt 0.010266 0.969805
vt 0.047749 0.560385
vt 0.047750 0.970188
vt 0.115848 0.560685
vt 0.115847 0.970488
vt 0.208996 0.561020
vt 0.208996 0.970823
vt 0.318078 0.561358
vt 0.318078 0.971161
vt 0.432415 0.561665
vt 0.432414 0.971468
vt 0.540814 0.561911
vt 0.540814 0.971715
vt 0.632667 0.562073
vt 0.632666 0.971876
vt 0.698981 0.562134
vt 0.698980 0.971937
vt 0.010118 0.008669
vt 0.010119 0.477879
vt 0.781464 0.221853
vt 0.808763 0.244961
vt 0.842043 0.258357
vt 0.878047 0.260733
vt 0.913249 0.251855
vt 0.944204 0.232592
vt 0.967882 0.204830
vt 0.981965 0.171286
vt 0.765809 0.282941
vt 0.785767 0.272053
vt 0.808049 0.345270
vt 0.807907 0.268332
vt 0.749985 0.299930
vt 0.830061 0.272143
vt 0.739845 0.321357
vt 0.850060 0.283111
vt 0.736381 0.345125
vt 0.865947 0.300165
vt 0.739933 0.368907
vt 0.876166 0.321633
vt 0.750152 0.390376
vt 0.879718 0.345415
vt 0.766039 0.407429
vt 0.876254 0.369183
vt 0.786038 0.418397
vt 0.866114 0.390610
vt 0.808192 0.422208
vt 0.850290 0.407599
vt 0.830332 0.418487
vt 0.762818 0.191299
vt 0.754650 0.156287
vt 0.869863 0.145765
vt 0.757760 0.120245
vt 0.771843 0.086701
vt 0.795521 0.058939
vt 0.826477 0.039676
vt 0.861679 0.030798
vt 0.897682 0.033173
vt 0.930962 0.046570
vt 0.958261 0.069677
vt 0.976907 0.100232
vt 0.985075 0.135244
vt 0.733264 0.562088
vt 0.733264 0.971892
vt 0.732161 0.561940
vt 0.732160 0.971743
vn 0.953812 -0.001851 -0.300398
vn 0.818513 -0.001056 -0.574487
vn 0.819231 -0.001059 -0.573463
vn 0.954120 -0.001854 -0.299418
vn 0.601713 -0.000142 -0.798712
vn 0.602806 -0.000146 -0.797888
vn 0.319866 0.000805 -0.947463
vn 0.321145 0.000801 -0.947030
vn 0.000814 0.001681 -0.999998
vn 0.001989 0.001678 -0.999997
vn -0.318792 0.002383 -0.947822
vn -0.317977 0.002381 -0.948096
vn -0.601798 0.002831 -0.798644
vn -0.601432 0.002831 -0.798919
vn -0.819388 0.002989 -0.573232
vn -0.819370 0.002989 -0.573257
vn -0.954568 0.002860 -0.297981
vn -0.954679 0.002860 -0.297625
vn -0.999997 0.002469 0.000984
vn -0.999996 0.002468 0.001714
vn -0.954120 0.001853 0.299419
vn -0.953812 0.001851 0.300400
vn -0.819231 0.001059 0.573463
vn -0.818513 0.001055 0.574487
vn -0.602807 0.000146 0.797887
vn -0.601714 0.000142 0.798712
vn -0.321145 -0.000801 0.947030
vn -0.319866 -0.000805 0.947463
vn -0.001988 -0.001679 0.999997
vn -0.000813 -0.001682 0.999998
vn 0.317978 -0.002382 0.948095
vn 0.318793 -0.002383 0.947821
vn 0.601431 -0.002831 0.798919
vn 0.601797 -0.002831 0.798644
vn 0.819370 -0.002989 0.573258
vn 0.819388 -0.002989 0.573232
vn 0.954679 -0.002860 0.297624
vn 0.954568 -0.002860 0.297980
vn 0.999996 -0.002468 -0.001714
vn 0.999997 -0.002469 -0.000984
vn 0.003213 -0.999993 0.002108
vn 0.003215 -0.999993 0.002107
vn 0.003214 -0.999993 0.002107
vn 0.003213 -0.999993 0.002106
vn 0.003216 -0.999993 0.002107
vn 0.003215 -0.999993 0.002108
vn 0.003212 -0.999993 0.002108
vn 0.003214 -0.999993 0.002107
vn 0.003217 -0.999993 0.002105
vn 0.003215 -0.999993 0.002110
vn 0.003213 -0.999993 0.002109
vn 0.003215 -0.999993 0.002109
vn 0.003213 -0.999993 0.002108
vn 0.003210 -0.999993 0.002104
vn 0.003215 -0.999993 0.002106
vn 0.003213 -0.999993 0.002107
vn 0.003215 -0.999993 0.002105
vn 0.003219 -0.999993 0.002105
vn 0.003214 -0.999993 0.002110
vn 0.003212 -0.999993 0.002111
vn 0.003213 -0.999993 0.002105
vn -0.003215 0.999993 -0.002109
vn -0.003213 0.999993 -0.002108
vn -0.003214 0.999993 -0.002107
vn -0.003210 0.999993 -0.002104
vn -0.003215 0.999993 -0.002106
vn -0.003213 0.999993 -0.002107
vn -0.003215 0.999993 -0.002105
vn -0.003219 0.999993 -0.002105
vn -0.003214 0.999993 -0.002110
vn -0.003212 0.999993 -0.002111
vn -0.003213 0.999993 -0.002104
vn -0.003215 0.999993 -0.002107
vn -0.003213 0.999993 -0.002108
vn -0.003213 0.999993 -0.002106
vn -0.003216 0.999993 -0.002108
vn -0.003215 0.999993 -0.002108
vn -0.003212 0.999993 -0.002108
vn -0.003214 0.999993 -0.002107
vn -0.003217 0.999993 -0.002105
vn -0.003215 0.999993 -0.002110
vn -0.003213 0.999993 -0.002109
s 1
g pasted__pasted__pasted__pCylinder1 pasted__pasted__group121 pasted__group127 group128
usemtl lambert10SG
f 1/1/1 2/2/2 22/3/3 21/4/4
f 2/2/2 3/5/5 23/6/6 22/3/3
f 3/5/5 4/7/7 24/8/8 23/6/6
f 4/7/7 5/9/9 25/10/10 24/8/8
f 5/9/9 6/11/11 26/12/12 25/10/10
f 6/11/11 7/13/13 27/14/14 26/12/12
f 7/13/13 8/15/15 28/16/16 27/14/14
f 8/15/15 9/17/17 29/18/18 28/16/16
f 9/19/17 10/20/19 30/21/20 29/22/18
f 10/20/19 11/23/21 31/24/22 30/21/20
f 11/23/21 12/25/23 32/26/24 31/24/22
f 12/25/23 13/27/25 33/28/26 32/26/24
f 13/27/25 14/29/27 34/30/28 33/28/26
f 14/29/27 15/31/29 35/32/30 34/30/28
f 15/31/29 16/33/31 36/34/32 35/32/30
f 16/33/31 17/35/33 37/36/34 36/34/32
f 17/35/33 18/37/35 38/38/36 37/36/34
f 18/37/35 19/83/37 39/84/38 38/38/36
f 19/83/37 20/85/39 40/86/40 39/84/38
f 20/39/39 1/1/1 21/4/4 40/40/40
s 2
f 2/49/41 1/50/42 41/51/43
f 3/53/44 2/49/41 41/51/43
f 4/55/45 3/53/44 41/51/43
f 5/57/46 4/55/45 41/51/43
f 6/59/47 5/57/46 41/51/43
f 7/61/48 6/59/47 41/51/43
f 8/63/49 7/61/48 41/51/43
f 9/65/50 8/63/49 41/51/43
f 10/67/51 9/65/50 41/51/43
f 11/69/52 10/67/51 41/51/43
f 12/68/53 11/69/52 41/51/43
f 13/66/54 12/68/53 41/51/43
f 14/64/55 13/66/54 41/51/43
f 15/62/56 14/64/55 41/51/43
f 16/60/57 15/62/56 41/51/43
f 17/58/58 16/60/57 41/51/43
f 18/56/59 17/58/58 41/51/43
f 19/54/60 18/56/59 41/51/43
f 20/52/61 19/54/60 41/51/43
f 1/50/42 20/52/61 41/51/43
s 3
f 21/70/62 22/71/63 42/72/64
f 22/71/63 23/73/65 42/72/64
f 23/73/65 24/74/66 42/72/64
f 24/74/66 25/75/67 42/72/64
f 25/75/67 26/76/68 42/72/64
f 26/76/68 27/77/69 42/72/64
f 27/77/69 28/78/70 42/72/64
f 28/78/70 29/79/71 42/72/64
f 29/79/71 30/80/72 42/72/64
f 30/80/72 31/81/73 42/72/64
f 31/81/73 32/82/74 42/72/64
f 32/82/74 33/48/75 42/72/64
f 33/48/75 34/47/76 42/72/64
f 34/47/76 35/46/77 42/72/64
f 35/46/77 36/45/78 42/72/64
f 36/45/78 37/44/79 42/72/64
f 37/44/79 38/43/80 42/72/64
f 38/43/80 39/42/81 42/72/64
f 39/42/81 40/41/82 42/72/64
f 40/41/82 21/70/62 42/72/64
