# This file uses centimeters as units for non-parametric coordinates.

mtllib Ferrero.mtl
g default
v -0.675036 0.011369 0.692284
v 0.731743 0.011369 0.692284
v -0.675036 0.235451 0.692284
v 0.731743 0.235451 0.692284
v -0.675036 0.235451 -0.705497
v 0.731743 0.235451 -0.705497
v -0.675036 0.011369 -0.705497
v 0.731743 0.011369 -0.705497
vt 0.103977 0.531295
vt 0.103977 0.468705
vt 0.103977 0.531295
vt 0.103977 0.468705
vt 0.448911 0.900048
vt 0.449278 0.413002
vt 0.832872 0.900498
vt 0.833240 0.413452
vt 0.312128 0.531295
vt 0.312128 0.468705
vt 0.312128 0.531295
vt 0.312128 0.468705
vt 0.572890 0.385137
vt 0.572037 0.070782
vt 1.000101 0.384511
vt 0.999248 0.070156
vn 0.000000 0.000000 1.000000
vn 0.000000 0.000000 1.000000
vn 0.000000 0.000000 1.000000
vn 0.000000 0.000000 1.000000
vn 0.000000 0.000000 1.000000
vn 0.000000 0.000000 1.000000
vn 0.000000 1.000000 0.000000
vn 0.000000 1.000000 0.000000
vn 0.000000 1.000000 0.000000
vn 0.000000 1.000000 0.000000
vn 0.000000 1.000000 0.000000
vn 0.000000 1.000000 0.000000
vn 0.000000 0.000000 -1.000000
vn 0.000000 0.000000 -1.000000
vn 0.000000 0.000000 -1.000000
vn 0.000000 0.000000 -1.000000
vn 0.000000 0.000000 -1.000000
vn 0.000000 0.000000 -1.000000
vn 0.000000 -1.000000 0.000000
vn 0.000000 -1.000000 0.000000
vn 0.000000 -1.000000 0.000000
vn 0.000000 -1.000000 0.000000
vn 0.000000 -1.000000 0.000000
vn 0.000000 -1.000000 0.000000
vn 1.000000 0.000000 0.000000
vn 1.000000 0.000000 0.000000
vn 1.000000 0.000000 0.000000
vn 1.000000 0.000000 0.000000
vn 1.000000 0.000000 0.000000
vn 1.000000 0.000000 0.000000
vn -1.000000 0.000000 0.000000
vn -1.000000 0.000000 0.000000
vn -1.000000 0.000000 0.000000
vn -1.000000 0.000000 0.000000
vn -1.000000 0.000000 0.000000
vn -1.000000 0.000000 0.000000
s off
g Testing:Testing4:pCube3 Testing:pasted__group1 Testing:group1
usemtl lambert3SG
f 1/1/1 2/2/2 3/3/3
f 3/3/4 2/2/5 4/4/6
f 3/5/7 4/6/8 5/7/9
f 5/7/10 4/6/11 6/8/12
f 5/9/13 6/10/14 7/11/15
f 7/11/16 6/10/17 8/12/18
f 7/13/19 8/14/20 1/15/21
f 1/15/22 8/14/23 2/16/24
f 2/2/25 8/12/26 4/4/27
f 4/4/28 8/12/29 6/10/30
f 7/11/31 1/1/32 5/9/33
f 5/9/34 1/1/35 3/3/36
