# This file uses centimeters as units for non-parametric coordinates.

mtllib GummyBearsCereal.mtl
g default
v -0.295966 0.016276 0.102296
v 0.274235 0.017761 0.088109
v -0.294481 0.714332 0.106738
v 0.275720 0.715817 0.092551
v -0.280294 0.709890 -0.076818
v 0.289908 0.711376 -0.091005
v -0.281779 0.011834 -0.081259
v 0.288422 0.013319 -0.095447
vt 0.019099 0.288504
vt 0.691823 0.290948
vt 0.691823 0.944982
vt 0.019099 0.942538
vt 0.040502 0.311989
vt 0.040502 0.377693
vt 0.032442 0.380116
vt 0.032442 0.314413
vt 0.675037 0.956007
vt 0.058190 0.958448
vt 0.058124 0.318243
vt 0.674972 0.315802
vt 0.081151 0.314700
vt 0.081151 0.380403
vt 0.089210 0.377980
vt 0.089210 0.312276
vt 0.115264 0.297851
vt 0.043447 0.298060
vt 0.043447 0.369894
vt 0.115264 0.369685
vt 0.021211 0.285647
vt 0.093028 0.285438
vt 0.093028 0.357272
vt 0.021211 0.357481
vn 0.024890 -0.006414 0.999670
vn 0.024890 -0.006414 0.999670
vn 0.024890 -0.006414 0.999670
vn 0.024890 -0.006414 0.999670
vn -0.003212 0.999696 -0.024439
vn -0.003212 0.999696 -0.024439
vn -0.003212 0.999696 -0.024439
vn -0.003212 0.999696 -0.024439
vn -0.024890 0.006414 -0.999670
vn -0.024890 0.006414 -0.999670
vn -0.024890 0.006414 -0.999670
vn -0.024890 0.006414 -0.999670
vn 0.003212 -0.999696 0.024439
vn 0.003212 -0.999696 0.024439
vn 0.003212 -0.999696 0.024439
vn 0.003212 -0.999696 0.024439
vn 0.997018 -0.002612 0.077124
vn 0.997018 -0.002612 0.077124
vn 0.997018 -0.002612 0.077124
vn 0.997018 -0.002612 0.077124
vn -0.997018 0.002612 -0.077124
vn -0.997018 0.002612 -0.077124
vn -0.997018 0.002612 -0.077124
vn -0.997018 0.002612 -0.077124
s off
g pasted__pasted__pasted__pCube1 pasted__pasted__group158 pasted__group162 group166
usemtl lambert13SG
f 1/1/1 2/2/2 4/3/3 3/4/4
f 3/5/5 4/6/6 6/7/7 5/8/8
f 5/9/9 6/10/10 8/11/11 7/12/12
f 7/13/13 8/14/14 2/15/15 1/16/16
f 2/17/17 8/18/18 6/19/19 4/20/20
f 7/21/21 1/22/22 3/23/23 5/24/24
