# This file uses centimeters as units for non-parametric coordinates.

mtllib Hershey.mtl
g default
v 0.502256 0.006564 -0.302809
v -0.497124 -0.010948 -0.301162
v 0.510428 0.130380 -0.298583
v -0.488953 0.112868 -0.296935
v 0.489029 0.133901 0.327714
v -0.510352 0.116389 0.329361
v 0.480857 0.010085 0.323487
v -0.518523 -0.007427 0.325135
vt 0.508030 0.212698
vt 0.508030 0.793304
vt 0.457084 0.787302
vt 0.457084 0.206696
vt 0.921355 0.229128
vt 0.906927 0.769446
vt 0.507196 0.770872
vt 0.521624 0.230553
vt 0.994335 0.225654
vt 0.994335 0.768731
vt 0.902632 0.774345
vt 0.902632 0.231269
vt 0.537690 0.500696
vt 0.537690 0.499272
vt 0.462310 0.499304
vt 0.462310 0.500728
vt 0.508092 0.198245
vt 0.924156 0.198874
vt 0.920452 0.378187
vt 0.504387 0.377558
vt 1.001099 0.892328
vt 0.475249 0.885386
vt 0.442407 0.765449
vt 0.968257 0.772391
vn -0.002248 0.034262 -0.999410
vn -0.002248 0.034262 -0.999410
vn -0.002248 0.034262 -0.999410
vn -0.002248 0.034262 -0.999410
vn -0.017530 0.999827 -0.006220
vn -0.017530 0.999827 -0.006220
vn -0.017530 0.999827 -0.006220
vn -0.017530 0.999827 -0.006220
vn 0.002248 -0.034263 0.999410
vn 0.002248 -0.034263 0.999410
vn 0.002248 -0.034263 0.999410
vn 0.002248 -0.034263 0.999410
vn 0.017530 -0.999827 0.006220
vn 0.017530 -0.999827 0.006220
vn 0.017530 -0.999827 0.006220
vn 0.017530 -0.999827 0.006220
vn -0.997159 0.066986 -0.034447
vn -0.997159 0.066986 -0.034447
vn -0.997159 0.066986 -0.034447
vn -0.997159 0.066986 -0.034447
vn 0.997159 -0.066987 0.034448
vn 0.997159 -0.066987 0.034448
vn 0.997159 -0.066987 0.034448
vn 0.997159 -0.066987 0.034448
s off
g Testing:Testing29:Testing20:pCube3 Testing:Testing29:group12 Testing:group21
usemtl lambert3SG
f 1/1/1 2/2/2 4/3/3 3/4/4
f 3/5/5 4/6/6 6/7/7 5/8/8
f 5/9/9 6/10/10 8/11/11 7/12/12
f 7/13/13 8/14/14 2/15/15 1/16/16
f 2/17/17 8/18/18 6/19/19 4/20/20
f 7/21/21 1/22/22 3/23/23 5/24/24
