# This file uses centimeters as units for non-parametric coordinates.

mtllib arm.mtl
g arm:default1
v -0.074614 1.096993 0.413756
v -0.127778 1.121573 0.423625
v -0.170162 1.159870 0.439898
v -0.197621 1.208134 0.460982
v -0.207463 1.261642 0.484815
v -0.198728 1.315156 0.509064
v -0.172268 1.363437 0.531353
v -0.130675 1.401759 0.549503
v -0.078019 1.426371 0.561736
v -0.019456 1.434864 0.566853
v 0.039281 1.426407 0.564357
v 0.092447 1.401826 0.554489
v 0.134832 1.363530 0.538216
v 0.162290 1.315265 0.517131
v 0.172132 1.261757 0.493298
v 0.163397 1.208244 0.469049
v 0.136938 1.159963 0.446761
v 0.095344 1.121641 0.428611
v 0.042689 1.097029 0.416378
v -0.015874 1.088536 0.411260
v -0.052480 1.544898 -0.582701
v -0.105644 1.569478 -0.572832
v -0.148030 1.607775 -0.556559
v -0.175489 1.656040 -0.535475
v -0.185331 1.709548 -0.511642
v -0.176595 1.763061 -0.487393
v -0.150136 1.811342 -0.465104
v -0.108542 1.849664 -0.446955
v -0.055887 1.874276 -0.434722
v 0.002676 1.882769 -0.429604
v 0.061415 1.874312 -0.432100
v 0.114579 1.849732 -0.441968
v 0.156965 1.811435 -0.458241
v 0.184423 1.763170 -0.479326
v 0.194266 1.709663 -0.503159
v 0.185530 1.656149 -0.527407
v 0.159069 1.607868 -0.549697
v 0.117477 1.569546 -0.567847
v 0.064822 1.544934 -0.580079
v 0.006258 1.536441 -0.585197
v -0.017666 1.261700 0.489058
v 0.004467 1.709605 -0.507401
vt 0.648603 0.107966
vt 0.626409 0.064408
vt 0.591842 0.029841
vt 0.548284 0.007647
vt 0.500000 -0.000000
vt 0.451716 0.007647
vt 0.408159 0.029841
vt 0.373591 0.064409
vt 0.351397 0.107966
vt 0.343750 0.156250
vt 0.351397 0.204534
vt 0.373591 0.248091
vt 0.408159 0.282659
vt 0.451716 0.304853
vt 0.500000 0.312500
vt 0.548284 0.304853
vt 0.591841 0.282659
vt 0.626409 0.248091
vt 0.648603 0.204534
vt 0.656250 0.156250
vt 0.375000 0.312500
vt 0.387500 0.312500
vt 0.400000 0.312500
vt 0.412500 0.312500
vt 0.425000 0.312500
vt 0.437500 0.312500
vt 0.450000 0.312500
vt 0.462500 0.312500
vt 0.475000 0.312500
vt 0.487500 0.312500
vt 0.500000 0.312500
vt 0.512500 0.312500
vt 0.525000 0.312500
vt 0.537500 0.312500
vt 0.550000 0.312500
vt 0.562500 0.312500
vt 0.575000 0.312500
vt 0.587500 0.312500
vt 0.600000 0.312500
vt 0.612500 0.312500
vt 0.625000 0.312500
vt 0.375000 0.688440
vt 0.387500 0.688440
vt 0.400000 0.688440
vt 0.412500 0.688440
vt 0.425000 0.688440
vt 0.437500 0.688440
vt 0.450000 0.688440
vt 0.462500 0.688440
vt 0.475000 0.688440
vt 0.487500 0.688440
vt 0.500000 0.688440
vt 0.512500 0.688440
vt 0.525000 0.688440
vt 0.537500 0.688440
vt 0.550000 0.688440
vt 0.562500 0.688440
vt 0.575000 0.688440
vt 0.587500 0.688440
vt 0.600000 0.688440
vt 0.612500 0.688440
vt 0.625000 0.688440
vt 0.648603 0.795466
vt 0.626409 0.751908
vt 0.591842 0.717341
vt 0.548284 0.695147
vt 0.500000 0.687500
vt 0.451716 0.695147
vt 0.408159 0.717341
vt 0.373591 0.751909
vt 0.351397 0.795466
vt 0.343750 0.843750
vt 0.351397 0.892034
vt 0.373591 0.935591
vt 0.408159 0.970159
vt 0.451716 0.992353
vt 0.500000 1.000000
vt 0.548284 0.992353
vt 0.591841 0.970159
vt 0.626409 0.935591
vt 0.648603 0.892034
vt 0.656250 0.843750
vt 0.500000 0.150000
vt 0.500000 0.837500
vn -0.299966 -0.867582 -0.396639
vn -0.580006 -0.738107 -0.344661
vn -0.580006 -0.738107 -0.344661
vn -0.299966 -0.867582 -0.396639
vn -0.580006 -0.738107 -0.344661
vn -0.803270 -0.536382 -0.258944
vn -0.803270 -0.536382 -0.258944
vn -0.580006 -0.738107 -0.344661
vn -0.803270 -0.536382 -0.258944
vn -0.947904 -0.282152 -0.147880
vn -0.947904 -0.282152 -0.147880
vn -0.803270 -0.536382 -0.258944
vn -0.947904 -0.282152 -0.147880
vn -0.999750 -0.000303 -0.022342
vn -0.999750 -0.000303 -0.022342
vn -0.947904 -0.282152 -0.147880
vn -0.999750 -0.000303 -0.022342
vn -0.953734 0.281576 0.105384
vn -0.953734 0.281576 0.105384
vn -0.999750 -0.000303 -0.022342
vn -0.953734 0.281576 0.105384
vn -0.814360 0.535892 0.222794
vn -0.814360 0.535892 0.222794
vn -0.953734 0.281576 0.105384
vn -0.814360 0.535892 0.222794
vn -0.595271 0.737751 0.318395
vn -0.595271 0.737751 0.318395
vn -0.814360 0.535892 0.222794
vn -0.595271 0.737751 0.318395
vn -0.317912 0.867394 0.382830
vn -0.317912 0.867394 0.382830
vn -0.595271 0.737751 0.318395
vn -0.317912 0.867394 0.382830
vn -0.009433 0.912131 0.409790
vn -0.009433 0.912131 0.409790
vn -0.317912 0.867394 0.382830
vn -0.009433 0.912131 0.409790
vn 0.299968 0.867581 0.396639
vn 0.299968 0.867581 0.396639
vn -0.009433 0.912131 0.409790
vn 0.299968 0.867581 0.396639
vn 0.580006 0.738107 0.344661
vn 0.580006 0.738107 0.344661
vn 0.299968 0.867581 0.396639
vn 0.580006 0.738107 0.344661
vn 0.803270 0.536382 0.258944
vn 0.803270 0.536382 0.258944
vn 0.580006 0.738107 0.344661
vn 0.803270 0.536382 0.258944
vn 0.947904 0.282152 0.147880
vn 0.947904 0.282152 0.147880
vn 0.803270 0.536382 0.258944
vn 0.947904 0.282152 0.147880
vn 0.999750 0.000303 0.022342
vn 0.999750 0.000303 0.022342
vn 0.947904 0.282152 0.147880
vn 0.999750 0.000303 0.022342
vn 0.953734 -0.281576 -0.105384
vn 0.953734 -0.281576 -0.105384
vn 0.999750 0.000303 0.022342
vn 0.953734 -0.281576 -0.105384
vn 0.814360 -0.535892 -0.222794
vn 0.814360 -0.535892 -0.222794
vn 0.953734 -0.281576 -0.105384
vn 0.814360 -0.535892 -0.222794
vn 0.595271 -0.737751 -0.318395
vn 0.595271 -0.737751 -0.318395
vn 0.814360 -0.535892 -0.222794
vn 0.595271 -0.737751 -0.318395
vn 0.317912 -0.867394 -0.382830
vn 0.317912 -0.867394 -0.382830
vn 0.595271 -0.737751 -0.318395
vn 0.317912 -0.867394 -0.382830
vn 0.009434 -0.912131 -0.409790
vn 0.009434 -0.912131 -0.409790
vn 0.317912 -0.867394 -0.382830
vn 0.009434 -0.912131 -0.409790
vn -0.299966 -0.867582 -0.396639
vn -0.299966 -0.867582 -0.396639
vn 0.009434 -0.912131 -0.409790
vn -0.020255 -0.409900 0.911906
vn -0.020255 -0.409899 0.911906
vn -0.020255 -0.409899 0.911906
vn -0.020255 -0.409899 0.911906
vn -0.020255 -0.409900 0.911906
vn -0.020255 -0.409899 0.911906
vn -0.020255 -0.409899 0.911906
vn -0.020255 -0.409899 0.911906
vn -0.020255 -0.409899 0.911906
vn -0.020255 -0.409900 0.911906
vn -0.020255 -0.409899 0.911906
vn -0.020255 -0.409899 0.911906
vn -0.020255 -0.409899 0.911906
vn -0.020255 -0.409900 0.911906
vn -0.020255 -0.409899 0.911906
vn -0.020255 -0.409899 0.911906
vn -0.020255 -0.409899 0.911906
vn -0.020255 -0.409899 0.911906
vn -0.020255 -0.409899 0.911906
vn -0.020255 -0.409899 0.911906
vn -0.020255 -0.409899 0.911906
vn -0.020255 -0.409899 0.911906
vn -0.020255 -0.409899 0.911906
vn -0.020255 -0.409899 0.911906
vn -0.020255 -0.409899 0.911906
vn -0.020255 -0.409899 0.911906
vn -0.020255 -0.409899 0.911906
vn -0.020255 -0.409899 0.911906
vn -0.020255 -0.409899 0.911906
vn -0.020255 -0.409899 0.911906
vn -0.020255 -0.409899 0.911906
vn -0.020255 -0.409899 0.911906
vn -0.020255 -0.409899 0.911906
vn -0.020255 -0.409899 0.911906
vn -0.020255 -0.409899 0.911906
vn -0.020255 -0.409899 0.911906
vn -0.020255 -0.409899 0.911906
vn -0.020255 -0.409899 0.911906
vn -0.020255 -0.409899 0.911906
vn -0.020255 -0.409899 0.911906
vn -0.020255 -0.409899 0.911906
vn -0.020255 -0.409899 0.911906
vn -0.020255 -0.409899 0.911906
vn -0.020255 -0.409899 0.911906
vn -0.020255 -0.409899 0.911906
vn -0.020255 -0.409899 0.911906
vn -0.020255 -0.409899 0.911906
vn -0.020255 -0.409899 0.911906
vn -0.020255 -0.409899 0.911906
vn -0.020255 -0.409899 0.911906
vn -0.020255 -0.409899 0.911906
vn -0.020255 -0.409899 0.911906
vn -0.020255 -0.409899 0.911906
vn -0.020255 -0.409899 0.911906
vn -0.020255 -0.409899 0.911906
vn -0.020255 -0.409899 0.911906
vn -0.020255 -0.409899 0.911906
vn -0.020255 -0.409899 0.911906
vn -0.020255 -0.409899 0.911906
vn -0.020255 -0.409899 0.911906
vn 0.020255 0.409899 -0.911906
vn 0.020255 0.409899 -0.911906
vn 0.020255 0.409900 -0.911906
vn 0.020255 0.409899 -0.911906
vn 0.020255 0.409900 -0.911906
vn 0.020255 0.409900 -0.911906
vn 0.020255 0.409900 -0.911906
vn 0.020255 0.409899 -0.911906
vn 0.020255 0.409900 -0.911906
vn 0.020255 0.409899 -0.911906
vn 0.020255 0.409899 -0.911906
vn 0.020255 0.409900 -0.911906
vn 0.020255 0.409899 -0.911906
vn 0.020255 0.409900 -0.911906
vn 0.020255 0.409900 -0.911906
vn 0.020255 0.409900 -0.911906
vn 0.020255 0.409900 -0.911906
vn 0.020255 0.409900 -0.911906
vn 0.020255 0.409900 -0.911906
vn 0.020255 0.409899 -0.911906
vn 0.020255 0.409900 -0.911906
vn 0.020255 0.409899 -0.911906
vn 0.020255 0.409899 -0.911906
vn 0.020255 0.409900 -0.911906
vn 0.020255 0.409899 -0.911906
vn 0.020255 0.409899 -0.911906
vn 0.020255 0.409900 -0.911906
vn 0.020255 0.409899 -0.911906
vn 0.020255 0.409899 -0.911906
vn 0.020255 0.409900 -0.911906
vn 0.020255 0.409899 -0.911906
vn 0.020255 0.409899 -0.911906
vn 0.020255 0.409900 -0.911906
vn 0.020255 0.409899 -0.911906
vn 0.020255 0.409899 -0.911906
vn 0.020255 0.409900 -0.911906
vn 0.020255 0.409899 -0.911906
vn 0.020255 0.409899 -0.911906
vn 0.020255 0.409900 -0.911906
vn 0.020255 0.409899 -0.911906
vn 0.020255 0.409899 -0.911906
vn 0.020255 0.409900 -0.911906
vn 0.020255 0.409899 -0.911906
vn 0.020255 0.409899 -0.911906
vn 0.020255 0.409900 -0.911906
vn 0.020255 0.409899 -0.911906
vn 0.020255 0.409899 -0.911906
vn 0.020255 0.409900 -0.911906
vn 0.020255 0.409899 -0.911906
vn 0.020255 0.409899 -0.911906
vn 0.020255 0.409900 -0.911906
vn 0.020255 0.409899 -0.911906
vn 0.020255 0.409899 -0.911906
vn 0.020255 0.409900 -0.911906
vn 0.020255 0.409899 -0.911906
vn 0.020255 0.409899 -0.911906
vn 0.020255 0.409900 -0.911906
vn 0.020255 0.409899 -0.911906
vn 0.020255 0.409899 -0.911906
vn 0.020255 0.409900 -0.911906
s off
g arm:group arm:pasted__pCylinder1 arm:polySurface2 arm:polySurface1
usemtl initialShadingGroup
f 1/21/1 2/22/2 22/43/3 21/42/4
f 2/22/5 3/23/6 23/44/7 22/43/8
f 3/23/9 4/24/10 24/45/11 23/44/12
f 4/24/13 5/25/14 25/46/15 24/45/16
f 5/25/17 6/26/18 26/47/19 25/46/20
f 6/26/21 7/27/22 27/48/23 26/47/24
f 7/27/25 8/28/26 28/49/27 27/48/28
f 8/28/29 9/29/30 29/50/31 28/49/32
f 9/29/33 10/30/34 30/51/35 29/50/36
f 10/30/37 11/31/38 31/52/39 30/51/40
f 11/31/41 12/32/42 32/53/43 31/52/44
f 12/32/45 13/33/46 33/54/47 32/53/48
f 13/33/49 14/34/50 34/55/51 33/54/52
f 14/34/53 15/35/54 35/56/55 34/55/56
f 15/35/57 16/36/58 36/57/59 35/56/60
f 16/36/61 17/37/62 37/58/63 36/57/64
f 17/37/65 18/38/66 38/59/67 37/58/68
f 18/38/69 19/39/70 39/60/71 38/59/72
f 19/39/73 20/40/74 40/61/75 39/60/76
f 20/40/77 1/41/78 21/62/79 40/61/80
f 2/2/81 1/1/82 41/83/83
f 3/3/84 2/2/85 41/83/86
f 4/4/87 3/3/88 41/83/89
f 5/5/90 4/4/91 41/83/92
f 6/6/93 5/5/94 41/83/95
f 7/7/96 6/6/97 41/83/98
f 8/8/99 7/7/100 41/83/101
f 9/9/102 8/8/103 41/83/104
f 10/10/105 9/9/106 41/83/107
f 11/11/108 10/10/109 41/83/110
f 12/12/111 11/11/112 41/83/113
f 13/13/114 12/12/115 41/83/116
f 14/14/117 13/13/118 41/83/119
f 15/15/120 14/14/121 41/83/122
f 16/16/123 15/15/124 41/83/125
f 17/17/126 16/16/127 41/83/128
f 18/18/129 17/17/130 41/83/131
f 19/19/132 18/18/133 41/83/134
f 20/20/135 19/19/136 41/83/137
f 1/1/138 20/20/139 41/83/140
f 21/81/141 22/80/142 42/84/143
f 22/80/144 23/79/145 42/84/146
f 23/79/147 24/78/148 42/84/149
f 24/78/150 25/77/151 42/84/152
f 25/77/153 26/76/154 42/84/155
f 26/76/156 27/75/157 42/84/158
f 27/75/159 28/74/160 42/84/161
f 28/74/162 29/73/163 42/84/164
f 29/73/165 30/72/166 42/84/167
f 30/72/168 31/71/169 42/84/170
f 31/71/171 32/70/172 42/84/173
f 32/70/174 33/69/175 42/84/176
f 33/69/177 34/68/178 42/84/179
f 34/68/180 35/67/181 42/84/182
f 35/67/183 36/66/184 42/84/185
f 36/66/186 37/65/187 42/84/188
f 37/65/189 38/64/190 42/84/191
f 38/64/192 39/63/193 42/84/194
f 39/63/195 40/82/196 42/84/197
f 40/82/198 21/81/199 42/84/200
