# This file uses centimeters as units for non-parametric coordinates.

mtllib ATM.mtl
g default
v -0.543926 0.020768 0.950153
v 0.479915 0.051108 0.980434
v -0.513586 3.906554 0.966879
v 0.510256 3.936891 0.997160
v -0.543868 3.889829 -0.874479
v 0.479974 3.920169 -0.844197
v -0.574208 0.004046 -0.891205
v 0.449634 0.034383 -0.860923
vt 0.594690 0.334062
vt 0.579875 0.433673
vt 0.579875 0.922547
vt 0.594690 0.822937
vt 0.983426 0.922878
vt 0.998240 0.823267
vt 0.983425 0.434003
vt 0.998240 0.334393
vn -0.029443 -0.004073 0.999558
vn -0.029443 -0.004073 0.999558
vn -0.029443 -0.004073 0.999558
vn -0.029443 -0.004073 0.999558
vn -0.029364 0.999532 -0.008595
vn -0.029364 0.999532 -0.008595
vn -0.029364 0.999532 -0.008595
vn -0.029364 0.999532 -0.008595
vn 0.029443 0.004073 -0.999558
vn 0.029443 0.004073 -0.999558
vn 0.029443 0.004073 -0.999558
vn 0.029443 0.004073 -0.999558
vn 0.029364 -0.999532 0.008595
vn 0.029364 -0.999532 0.008595
vn 0.029364 -0.999532 0.008595
vn 0.029364 -0.999532 0.008595
vn 0.999836 -0.007736 -0.016372
vn 0.999836 -0.007736 -0.016372
vn 0.999836 -0.007736 -0.016372
vn 0.999836 -0.007736 -0.016372
vn -0.999836 0.007736 0.016372
vn -0.999836 0.007736 0.016372
vn -0.999836 0.007736 0.016372
vn -0.999836 0.007736 0.016372
s off
g pCube1
usemtl lambert2SG
f 1/1/1 2/2/2 4/3/3 3/4/4
f 3/4/5 4/3/6 6/5/7 5/6/8
f 5/6/9 6/5/10 8/7/11 7/8/12
f 7/8/13 8/7/14 2/2/15 1/1/16
f 2/2/17 8/7/18 6/5/19 4/3/20
f 7/8/21 1/1/22 3/4/23 5/6/24
g default
v 0.385157 2.584476 0.732650
v 0.649474 2.594320 0.773586
v 0.395002 3.801745 0.730884
v 0.659319 3.811589 0.771820
v 0.354066 3.803511 -0.645782
v 0.618383 3.813355 -0.604847
v 0.344222 2.586242 -0.644017
v 0.608539 2.596086 -0.603081
vt 0.850586 0.760583
vt 0.823614 0.782643
vt 0.822530 0.907280
vt 0.849502 0.885220
vt 0.649886 0.801181
vt 0.622915 0.823240
vt 0.623999 0.698603
vt 0.650971 0.676543
vt 0.393359 0.903167
vt 0.061726 0.902980
vt 0.061089 0.713792
vt 0.392722 0.713979
vn -0.153144 0.002672 0.988200
vn -0.153144 0.002672 0.988200
vn -0.153144 0.002672 0.988200
vn -0.153144 0.002672 0.988200
vn -0.037589 0.999290 0.002399
vn -0.037589 0.999290 0.002399
vn -0.037589 0.999290 0.002399
vn -0.037589 0.999290 0.002399
vn 0.153144 -0.002672 -0.988200
vn 0.153144 -0.002672 -0.988200
vn 0.153144 -0.002672 -0.988200
vn 0.153144 -0.002672 -0.988200
vn 0.037589 -0.999290 -0.002399
vn 0.037589 -0.999290 -0.002399
vn 0.037589 -0.999290 -0.002399
vn 0.037589 -0.999290 -0.002399
vn 0.999525 -0.008127 -0.029732
vn 0.999525 -0.008127 -0.029732
vn 0.999525 -0.008127 -0.029732
vn 0.999525 -0.008127 -0.029732
vn -0.999525 0.008127 0.029732
vn -0.999525 0.008127 0.029732
vn -0.999525 0.008127 0.029732
vn -0.999525 0.008127 0.029732
s off
g pCube2
usemtl lambert2SG
f 9/9/25 10/10/26 12/11/27 11/12/28
f 13/13/29 11/12/30 12/11/31 14/14/32
f 13/13/33 14/14/34 16/15/35 15/16/36
f 15/16/37 16/15/38 10/10/39 9/9/40
f 14/17/41 12/18/42 10/19/43 16/20/44
f 11/12/45 13/13/46 15/16/47 9/9/48
g default
v 0.678084 2.557830 0.238591
v 0.967319 2.555544 0.238782
v 0.675798 2.633374 0.236759
v 0.965034 2.631088 0.236950
v 0.675607 2.635205 -0.058207
v 0.964842 2.632920 -0.058016
v 0.677893 2.559662 -0.056375
v 0.967128 2.557375 -0.056184
vt 0.674035 0.398455
vt 0.798238 0.398498
vt 0.797253 0.389184
vt 0.673050 0.389141
vt 0.797253 0.601546
vt 0.673050 0.601502
vt 0.798238 0.610860
vt 0.674035 0.610816
vt 0.162198 0.716053
vt 0.158717 0.633035
vt 0.292251 0.632415
vt 0.295732 0.715432
vn -0.000469 0.024228 0.999706
vn -0.000469 0.024228 0.999706
vn -0.000469 0.024228 0.999706
vn -0.000469 0.024228 0.999706
vn 0.007899 0.999950 0.006205
vn 0.007899 0.999950 0.006205
vn 0.007899 0.999950 0.006205
vn 0.007899 0.999950 0.006205
vn 0.000469 -0.024228 -0.999706
vn 0.000469 -0.024228 -0.999706
vn 0.000469 -0.024228 -0.999706
vn 0.000469 -0.024228 -0.999706
vn -0.007899 -0.999950 -0.006205
vn -0.007899 -0.999950 -0.006205
vn -0.007899 -0.999950 -0.006205
vn -0.007899 -0.999950 -0.006205
vn 0.999543 0.030233 -0.000460
vn 0.999543 0.030233 -0.000460
vn 0.999543 0.030233 -0.000460
vn 0.999543 0.030233 -0.000460
vn -0.999543 -0.030233 0.000460
vn -0.999543 -0.030233 0.000460
vn -0.999543 -0.030233 0.000460
vn -0.999543 -0.030233 0.000460
s off
g pCube4
usemtl lambert2SG
f 17/21/49 18/22/50 20/23/51 19/24/52
f 19/29/53 20/30/54 22/31/55 21/32/56
f 21/26/57 22/25/58 24/27/59 23/28/60
f 23/28/61 24/27/62 18/22/63 17/21/64
f 18/22/65 24/27/66 22/25/67 20/23/68
f 23/28/69 17/21/70 19/24/71 21/26/72
g default
v 0.047305 3.702885 0.548172
v 0.038754 3.702413 0.531656
v 0.025429 3.701897 0.518551
v 0.008634 3.701388 0.510141
v -0.009985 3.700934 0.507249
v -0.028607 3.700581 0.510157
v -0.045408 3.700363 0.518581
v -0.058745 3.700302 0.531697
v -0.067310 3.700403 0.548221
v -0.070268 3.700656 0.566535
v -0.067326 3.701037 0.584846
v -0.058774 3.701508 0.601363
v -0.045449 3.702024 0.614467
v -0.028655 3.702534 0.622877
v -0.010036 3.702987 0.625770
v 0.008586 3.703340 0.622862
v 0.025387 3.703558 0.614437
v 0.038724 3.703620 0.601321
v 0.047290 3.703519 0.584797
v 0.050247 3.703266 0.566484
v 0.049915 4.067489 0.550225
v 0.041363 4.067018 0.533708
v 0.028038 4.066502 0.520604
v 0.011244 4.065993 0.512193
v -0.007375 4.065539 0.509301
v -0.025997 4.065186 0.512209
v -0.042798 4.064968 0.520634
v -0.056135 4.064906 0.533750
v -0.064701 4.065008 0.550273
v -0.067658 4.065260 0.568587
v -0.064717 4.065642 0.586899
v -0.056165 4.066113 0.603415
v -0.042840 4.066629 0.616520
v -0.026046 4.067138 0.624930
v -0.007426 4.067592 0.627822
v 0.011195 4.067945 0.624914
v 0.027997 4.068163 0.616490
v 0.041334 4.068224 0.603374
v 0.049899 4.068124 0.586850
v 0.052857 4.067870 0.568536
v -0.010010 3.701961 0.566509
v -0.007401 4.066565 0.568562
vt 0.681698 0.851193
vt 0.685384 0.850381
vt 0.685280 0.896228
vt 0.681594 0.897041
vt 0.688361 0.849105
vt 0.688257 0.894953
vt 0.690337 0.847492
vt 0.690233 0.893340
vt 0.691119 0.845700
vt 0.691015 0.891548
vt 0.690631 0.843903
vt 0.690527 0.889751
vt 0.688921 0.842278
vt 0.688817 0.888126
vt 0.686155 0.840984
vt 0.686051 0.886831
vt 0.682604 0.840147
vt 0.682500 0.885994
vt 0.678617 0.839849
vt 0.678513 0.885697
vt 0.674582 0.840120
vt 0.674479 0.885968
vt 0.670897 0.840933
vt 0.670793 0.886781
vt 0.667920 0.842208
vt 0.667816 0.888056
vt 0.665944 0.843821
vt 0.665840 0.889668
vt 0.665161 0.845613
vt 0.665057 0.891461
vt 0.665649 0.847410
vt 0.665545 0.893258
vt 0.667360 0.849035
vt 0.667256 0.894883
vt 0.670126 0.850330
vt 0.670022 0.896177
vt 0.673676 0.851166
vt 0.673573 0.897014
vt 0.677664 0.851464
vt 0.677560 0.897312
vt 0.678140 0.845657
vt 0.678036 0.891504
vn 0.948676 -0.005010 -0.316210
vn 0.802315 -0.002382 -0.596897
vn 0.806550 -0.002445 -0.591161
vn 0.950626 -0.005057 -0.310299
vn 0.578275 0.000454 -0.815842
vn 0.584214 0.000388 -0.811600
vn 0.300739 0.003216 -0.953701
vn 0.307191 0.003158 -0.951643
vn -0.003373 0.005653 -0.999978
vn 0.002273 0.005612 -0.999982
vn -0.306727 0.007553 -0.951768
vn -0.302901 0.007533 -0.952992
vn -0.582322 0.008745 -0.812911
vn -0.580700 0.008740 -0.814071
vn -0.804126 0.009102 -0.594390
vn -0.804287 0.009102 -0.594172
vn -0.948946 0.008568 -0.315323
vn -0.949753 0.008560 -0.312883
vn -0.999970 0.007174 -0.002884
vn -0.999973 0.007148 0.001760
vn -0.950626 0.005057 0.310299
vn -0.948676 0.005010 0.316209
vn -0.806550 0.002445 0.591161
vn -0.802315 0.002382 0.596897
vn -0.584213 -0.000388 0.811601
vn -0.578275 -0.000454 0.815842
vn -0.307191 -0.003159 0.951643
vn -0.300739 -0.003216 0.953701
vn -0.002275 -0.005612 0.999982
vn 0.003371 -0.005653 0.999978
vn 0.302902 -0.007533 0.952992
vn 0.306727 -0.007553 0.951768
vn 0.580700 -0.008740 0.814071
vn 0.582323 -0.008745 0.812911
vn 0.804287 -0.009102 0.594171
vn 0.804126 -0.009102 0.594389
vn 0.949753 -0.008560 0.312884
vn 0.948945 -0.008568 0.315325
vn 0.999973 -0.007148 -0.001759
vn 0.999970 -0.007174 0.002885
vn 0.021657 -0.999615 0.017322
vn 0.021654 -0.999615 0.017332
vn 0.021654 -0.999616 0.017322
vn 0.021655 -0.999615 0.017329
vn 0.021653 -0.999616 0.017322
vn 0.021657 -0.999615 0.017327
vn 0.021650 -0.999615 0.017326
vn 0.021646 -0.999615 0.017330
vn 0.021652 -0.999616 0.017319
vn 0.021658 -0.999616 0.017316
vn 0.021654 -0.999616 0.017318
vn 0.021657 -0.999616 0.017316
vn 0.021661 -0.999615 0.017328
vn 0.021652 -0.999616 0.017321
vn 0.021648 -0.999616 0.017316
vn 0.021657 -0.999615 0.017319
vn 0.021661 -0.999615 0.017318
vn 0.021656 -0.999615 0.017322
vn 0.021647 -0.999616 0.017331
vn 0.021653 -0.999616 0.017306
vn 0.021662 -0.999615 0.017318
vn -0.021655 0.999616 -0.017309
vn -0.021661 0.999615 -0.017328
vn -0.021654 0.999616 -0.017322
vn -0.021652 0.999616 -0.017322
vn -0.021648 0.999616 -0.017316
vn -0.021663 0.999615 -0.017318
vn -0.021662 0.999615 -0.017322
vn -0.021651 0.999615 -0.017326
vn -0.021647 0.999615 -0.017331
vn -0.021651 0.999616 -0.017314
vn -0.021658 0.999615 -0.017318
vn -0.021652 0.999615 -0.017326
vn -0.021653 0.999616 -0.017318
vn -0.021652 0.999616 -0.017322
vn -0.021661 0.999615 -0.017321
vn -0.021664 0.999615 -0.017327
vn -0.021650 0.999616 -0.017326
vn -0.021651 0.999615 -0.017326
vn -0.021655 0.999615 -0.017320
vn -0.021654 0.999615 -0.017329
vn -0.021650 0.999616 -0.017319
s 1
g pCylinder1
usemtl lambert2SG
f 25/33/73 26/34/74 46/35/75 45/36/76
f 26/34/74 27/37/77 47/38/78 46/35/75
f 27/37/77 28/39/79 48/40/80 47/38/78
f 28/39/79 29/41/81 49/42/82 48/40/80
f 29/41/81 30/43/83 50/44/84 49/42/82
f 30/43/83 31/45/85 51/46/86 50/44/84
f 31/45/85 32/47/87 52/48/88 51/46/86
f 32/47/87 33/49/89 53/50/90 52/48/88
f 33/49/89 34/51/91 54/52/92 53/50/90
f 34/51/91 35/53/93 55/54/94 54/52/92
f 35/53/93 36/55/95 56/56/96 55/54/94
f 36/55/95 37/57/97 57/58/98 56/56/96
f 37/57/97 38/59/99 58/60/100 57/58/98
f 38/59/99 39/61/101 59/62/102 58/60/100
f 39/61/101 40/63/103 60/64/104 59/62/102
f 40/63/103 41/65/105 61/66/106 60/64/104
f 41/65/105 42/67/107 62/68/108 61/66/106
f 42/67/107 43/69/109 63/70/110 62/68/108
f 43/69/109 44/71/111 64/72/112 63/70/110
f 44/71/111 25/33/73 45/36/76 64/72/112
s 2
f 26/34/113 25/33/114 65/73/115
f 27/37/116 26/34/113 65/73/115
f 28/39/117 27/37/116 65/73/115
f 29/41/118 28/39/117 65/73/115
f 30/43/119 29/41/118 65/73/115
f 31/45/120 30/43/119 65/73/115
f 32/47/121 31/45/120 65/73/115
f 33/49/122 32/47/121 65/73/115
f 34/51/123 33/49/122 65/73/115
f 35/53/124 34/51/123 65/73/115
f 36/55/125 35/53/124 65/73/115
f 37/57/126 36/55/125 65/73/115
f 38/59/127 37/57/126 65/73/115
f 39/61/128 38/59/127 65/73/115
f 40/63/129 39/61/128 65/73/115
f 41/65/130 40/63/129 65/73/115
f 42/67/131 41/65/130 65/73/115
f 43/69/132 42/67/131 65/73/115
f 44/71/133 43/69/132 65/73/115
f 25/33/114 44/71/133 65/73/115
s 3
f 45/36/134 46/35/135 66/74/136
f 46/35/135 47/38/137 66/74/136
f 47/38/137 48/40/138 66/74/136
f 48/40/138 49/42/139 66/74/136
f 49/42/139 50/44/140 66/74/136
f 50/44/140 51/46/141 66/74/136
f 51/46/141 52/48/142 66/74/136
f 52/48/142 53/50/143 66/74/136
f 53/50/143 54/52/144 66/74/136
f 54/52/144 55/54/145 66/74/136
f 55/54/145 56/56/146 66/74/136
f 56/56/146 57/58/147 66/74/136
f 57/58/147 58/60/148 66/74/136
f 58/60/148 59/62/149 66/74/136
f 59/62/149 60/64/150 66/74/136
f 60/64/150 61/66/151 66/74/136
f 61/66/151 62/68/152 66/74/136
f 62/68/152 63/70/153 66/74/136
f 63/70/153 64/72/154 66/74/136
f 64/72/154 45/36/134 66/74/136
g default
v -0.104753 4.068076 0.759949
v 0.058206 4.068076 0.759949
v -0.104753 4.496099 0.759949
v 0.058206 4.496099 0.759949
v -0.104753 4.496099 -0.585439
v 0.058206 4.496099 -0.585439
v -0.104753 4.068076 -0.585439
v 0.058206 4.068076 -0.585439
vt 0.435044 0.223418
vt 0.435044 0.223418
vt 0.487834 0.223418
vt 0.487834 0.223418
vt 0.487834 0.313863
vt 0.487834 0.313863
vt 0.435044 0.313863
vt 0.435044 0.313863
vt 0.012026 0.150159
vt 0.499378 0.149996
vt 0.499551 0.332852
vt 0.012198 0.333015
vn 0.000000 0.000000 1.000000
vn 0.000000 0.000000 1.000000
vn 0.000000 0.000000 1.000000
vn 0.000000 0.000000 1.000000
vn 0.000000 1.000000 0.000000
vn 0.000000 1.000000 0.000000
vn 0.000000 1.000000 0.000000
vn 0.000000 1.000000 0.000000
vn 0.000000 0.000000 -1.000000
vn 0.000000 0.000000 -1.000000
vn 0.000000 0.000000 -1.000000
vn 0.000000 0.000000 -1.000000
vn 0.000000 -1.000000 0.000000
vn 0.000000 -1.000000 0.000000
vn 0.000000 -1.000000 0.000000
vn 0.000000 -1.000000 0.000000
vn 1.000000 0.000000 0.000000
vn 1.000000 0.000000 0.000000
vn 1.000000 0.000000 0.000000
vn 1.000000 0.000000 0.000000
vn -1.000000 0.000000 0.000000
vn -1.000000 0.000000 0.000000
vn -1.000000 0.000000 0.000000
vn -1.000000 0.000000 0.000000
s off
g pCube5
usemtl lambert2SG
f 67/75/155 68/76/156 70/77/157 69/78/158
f 69/78/159 70/77/160 72/79/161 71/80/162
f 71/80/163 72/79/164 74/81/165 73/82/166
f 73/82/167 74/81/168 68/76/169 67/75/170
f 68/83/171 74/84/172 72/85/173 70/86/174
f 73/82/175 67/75/176 69/78/177 71/80/178
g default
v 0.453197 2.508147 0.780509
v 1.004555 2.508147 0.780509
v 0.453197 2.602741 0.780509
v 1.004555 2.602741 0.780509
v 0.453197 2.602741 -0.591197
v 1.004555 2.602741 -0.591197
v 0.453197 2.508147 -0.591197
v 1.004555 2.508147 -0.591197
vt 0.058114 0.511403
vt 0.385294 0.511277
vt 0.387701 0.595952
vt 0.060522 0.596078
vt 0.589742 0.618626
vt 0.589742 0.504507
vt 0.719114 0.504507
vt 0.719114 0.618626
vt 0.721794 0.504507
vt 0.851166 0.504507
vt 0.851166 0.618626
vt 0.721794 0.618626
vt 0.823000 0.734026
vt 0.823000 0.619908
vt 0.952371 0.619908
vt 0.952371 0.734026
vt 0.820766 0.734026
vt 0.691394 0.734026
vt 0.691394 0.619908
vt 0.820766 0.619908
vt 0.719114 0.735308
vt 0.719114 0.849427
vt 0.589742 0.849427
vt 0.589742 0.735308
vn 0.000000 0.000000 1.000000
vn 0.000000 0.000000 1.000000
vn 0.000000 0.000000 1.000000
vn 0.000000 0.000000 1.000000
vn 0.000000 1.000000 0.000000
vn 0.000000 1.000000 0.000000
vn 0.000000 1.000000 0.000000
vn 0.000000 1.000000 0.000000
vn 0.000000 0.000000 -1.000000
vn 0.000000 0.000000 -1.000000
vn 0.000000 0.000000 -1.000000
vn 0.000000 0.000000 -1.000000
vn 0.000000 -1.000000 0.000000
vn 0.000000 -1.000000 0.000000
vn 0.000000 -1.000000 0.000000
vn 0.000000 -1.000000 0.000000
vn 1.000000 0.000000 0.000000
vn 1.000000 0.000000 0.000000
vn 1.000000 0.000000 0.000000
vn 1.000000 0.000000 0.000000
vn -1.000000 0.000000 0.000000
vn -1.000000 0.000000 0.000000
vn -1.000000 0.000000 0.000000
vn -1.000000 0.000000 0.000000
s off
g pCube6
usemtl lambert5SG
f 75/91/179 76/92/180 78/93/181 77/94/182
f 77/95/183 78/96/184 80/97/185 79/98/186
f 79/99/187 80/100/188 82/101/189 81/102/190
f 81/103/191 82/104/192 76/105/193 75/106/194
usemtl lambert3SG
f 76/87/195 82/88/196 80/89/197 78/90/198
usemtl lambert5SG
f 81/107/199 75/108/200 77/109/201 79/110/202
g default
v 0.354166 3.198550 -0.657572
v 0.545904 3.198550 -0.657572
v 0.354166 3.249805 -0.657572
v 0.545904 3.249805 -0.657572
v 0.354166 3.249805 -0.805294
v 0.545904 3.249805 -0.805294
v 0.354166 3.198550 -0.805294
v 0.545904 3.198550 -0.805294
vt 0.692435 0.522282
vt 0.820311 0.522282
vt 0.692435 0.609386
vt 0.820311 0.609386
vt 0.692435 0.696490
vt 0.820311 0.696490
vt 0.692435 0.783595
vt 0.820311 0.783595
vt 0.692435 0.870699
vt 0.820311 0.870699
vt 0.298688 0.647468
vt 0.367913 0.648918
vt 0.564560 0.522282
vt 0.564560 0.609386
vt 0.368497 0.691911
vt 0.299272 0.690460
vn 0.000000 0.000000 1.000000
vn 0.000000 0.000000 1.000000
vn 0.000000 0.000000 1.000000
vn 0.000000 0.000000 1.000000
vn 0.000000 1.000000 0.000000
vn 0.000000 1.000000 0.000000
vn 0.000000 1.000000 0.000000
vn 0.000000 1.000000 0.000000
vn 0.000000 0.000000 -1.000000
vn 0.000000 0.000000 -1.000000
vn 0.000000 0.000000 -1.000000
vn 0.000000 0.000000 -1.000000
vn 0.000000 -1.000000 0.000000
vn 0.000000 -1.000000 0.000000
vn 0.000000 -1.000000 0.000000
vn 0.000000 -1.000000 0.000000
vn 1.000000 0.000000 0.000000
vn 1.000000 0.000000 0.000000
vn 1.000000 0.000000 0.000000
vn 1.000000 0.000000 0.000000
vn -1.000000 0.000000 0.000000
vn -1.000000 0.000000 0.000000
vn -1.000000 0.000000 0.000000
vn -1.000000 0.000000 0.000000
s off
g pCube7
usemtl lambert4SG
f 83/111/203 84/112/204 86/114/205 85/113/206
f 85/113/207 86/114/208 88/116/209 87/115/210
f 87/115/211 88/116/212 90/118/213 89/117/214
f 89/117/215 90/118/216 84/120/217 83/119/218
f 84/121/219 90/122/220 88/125/221 86/126/222
f 89/123/223 83/111/224 85/113/225 87/124/226
g default
v 0.047305 3.702885 -0.375303
v 0.038754 3.702413 -0.391820
v 0.025429 3.701897 -0.404924
v 0.008634 3.701388 -0.413335
v -0.009985 3.700934 -0.416227
v -0.028607 3.700581 -0.413319
v -0.045408 3.700363 -0.404894
v -0.058745 3.700302 -0.391778
v -0.067310 3.700403 -0.375255
v -0.070268 3.700656 -0.356941
v -0.067326 3.701037 -0.338629
v -0.058774 3.701508 -0.322113
v -0.045449 3.702024 -0.309008
v -0.028655 3.702534 -0.300598
v -0.010036 3.702987 -0.297705
v 0.008586 3.703340 -0.300613
v 0.025387 3.703558 -0.309038
v 0.038724 3.703620 -0.322154
v 0.047290 3.703519 -0.338678
v 0.050247 3.703266 -0.356992
v 0.049915 4.067489 -0.373251
v 0.041363 4.067018 -0.389767
v 0.028038 4.066502 -0.402872
v 0.011244 4.065993 -0.411282
v -0.007375 4.065539 -0.414175
v -0.025997 4.065186 -0.411266
v -0.042798 4.064968 -0.402842
v -0.056135 4.064906 -0.389726
v -0.064701 4.065008 -0.373202
v -0.067658 4.065260 -0.354888
v -0.064717 4.065642 -0.336577
v -0.056165 4.066113 -0.320060
v -0.042840 4.066629 -0.306956
v -0.026046 4.067138 -0.298545
v -0.007426 4.067592 -0.295653
v 0.011195 4.067945 -0.298561
v 0.027997 4.068163 -0.306985
v 0.041334 4.068224 -0.320101
v 0.049899 4.068124 -0.336625
v 0.052857 4.067870 -0.354939
v -0.010010 3.701961 -0.356966
v -0.007401 4.066565 -0.354914
vt 0.759216 0.847866
vt 0.758833 0.849158
vt 0.758925 0.890267
vt 0.759308 0.888975
vt 0.759611 0.850425
vt 0.759703 0.891534
vt 0.761475 0.851545
vt 0.761566 0.892654
vt 0.764240 0.852406
vt 0.764332 0.893515
vt 0.767637 0.852925
vt 0.767729 0.894034
vt 0.771334 0.853051
vt 0.771426 0.894160
vt 0.774968 0.852771
vt 0.775060 0.893880
vt 0.778183 0.852114
vt 0.778275 0.893223
vt 0.780666 0.851143
vt 0.780757 0.892251
vt 0.782172 0.849953
vt 0.782264 0.891062
vt 0.782554 0.848661
vt 0.782646 0.889770
vt 0.781776 0.847394
vt 0.781868 0.888502
vt 0.779913 0.846274
vt 0.780005 0.887383
vt 0.777147 0.845413
vt 0.777239 0.886522
vt 0.773750 0.844894
vt 0.773842 0.886003
vt 0.770054 0.844768
vt 0.770146 0.885877
vt 0.766420 0.845048
vt 0.766512 0.886156
vt 0.763205 0.845705
vt 0.763296 0.886814
vt 0.760722 0.846676
vt 0.760814 0.887785
vt 0.770694 0.848909
vt 0.770786 0.890018
vn 0.948676 -0.005010 -0.316210
vn 0.802315 -0.002382 -0.596897
vn 0.806550 -0.002445 -0.591161
vn 0.950626 -0.005057 -0.310299
vn 0.578275 0.000454 -0.815842
vn 0.584214 0.000388 -0.811600
vn 0.300739 0.003216 -0.953701
vn 0.307191 0.003158 -0.951643
vn -0.003373 0.005653 -0.999978
vn 0.002273 0.005612 -0.999982
vn -0.306727 0.007553 -0.951768
vn -0.302901 0.007533 -0.952992
vn -0.582322 0.008745 -0.812911
vn -0.580700 0.008740 -0.814071
vn -0.804126 0.009102 -0.594390
vn -0.804287 0.009102 -0.594172
vn -0.948946 0.008568 -0.315323
vn -0.949753 0.008560 -0.312883
vn -0.999970 0.007174 -0.002884
vn -0.999973 0.007148 0.001760
vn -0.950626 0.005057 0.310299
vn -0.948676 0.005010 0.316209
vn -0.806550 0.002444 0.591161
vn -0.802315 0.002382 0.596896
vn -0.584213 -0.000388 0.811601
vn -0.578275 -0.000454 0.815842
vn -0.307191 -0.003159 0.951643
vn -0.300739 -0.003216 0.953701
vn -0.002275 -0.005612 0.999982
vn 0.003371 -0.005653 0.999978
vn 0.302902 -0.007533 0.952992
vn 0.306727 -0.007553 0.951768
vn 0.580700 -0.008740 0.814071
vn 0.582323 -0.008745 0.812911
vn 0.804287 -0.009102 0.594171
vn 0.804126 -0.009102 0.594389
vn 0.949753 -0.008560 0.312884
vn 0.948945 -0.008568 0.315325
vn 0.999973 -0.007148 -0.001759
vn 0.999970 -0.007174 0.002885
vn 0.021657 -0.999615 0.017322
vn 0.021654 -0.999615 0.017332
vn 0.021654 -0.999615 0.017322
vn 0.021655 -0.999615 0.017329
vn 0.021653 -0.999616 0.017322
vn 0.021657 -0.999615 0.017327
vn 0.021650 -0.999615 0.017326
vn 0.021646 -0.999615 0.017330
vn 0.021652 -0.999616 0.017319
vn 0.021658 -0.999616 0.017316
vn 0.021654 -0.999616 0.017318
vn 0.021657 -0.999616 0.017316
vn 0.021661 -0.999615 0.017328
vn 0.021652 -0.999616 0.017321
vn 0.021648 -0.999616 0.017316
vn 0.021657 -0.999615 0.017319
vn 0.021661 -0.999615 0.017318
vn 0.021656 -0.999615 0.017322
vn 0.021647 -0.999615 0.017331
vn 0.021653 -0.999616 0.017306
vn 0.021662 -0.999615 0.017318
vn -0.021655 0.999616 -0.017309
vn -0.021661 0.999615 -0.017328
vn -0.021654 0.999616 -0.017322
vn -0.021652 0.999616 -0.017322
vn -0.021648 0.999616 -0.017316
vn -0.021663 0.999615 -0.017318
vn -0.021662 0.999615 -0.017322
vn -0.021651 0.999615 -0.017326
vn -0.021647 0.999615 -0.017331
vn -0.021651 0.999616 -0.017314
vn -0.021658 0.999615 -0.017318
vn -0.021652 0.999615 -0.017326
vn -0.021653 0.999616 -0.017318
vn -0.021652 0.999616 -0.017322
vn -0.021661 0.999615 -0.017321
vn -0.021664 0.999615 -0.017327
vn -0.021650 0.999616 -0.017326
vn -0.021651 0.999615 -0.017326
vn -0.021655 0.999615 -0.017320
vn -0.021654 0.999615 -0.017329
vn -0.021650 0.999616 -0.017319
s 1
g pasted__pCylinder1 group
usemtl lambert2SG
f 91/127/227 92/128/228 112/129/229 111/130/230
f 92/128/228 93/131/231 113/132/232 112/129/229
f 93/131/231 94/133/233 114/134/234 113/132/232
f 94/133/233 95/135/235 115/136/236 114/134/234
f 95/135/235 96/137/237 116/138/238 115/136/236
f 96/137/237 97/139/239 117/140/240 116/138/238
f 97/139/239 98/141/241 118/142/242 117/140/240
f 98/141/241 99/143/243 119/144/244 118/142/242
f 99/143/243 100/145/245 120/146/246 119/144/244
f 100/145/245 101/147/247 121/148/248 120/146/246
f 101/147/247 102/149/249 122/150/250 121/148/248
f 102/149/249 103/151/251 123/152/252 122/150/250
f 103/151/251 104/153/253 124/154/254 123/152/252
f 104/153/253 105/155/255 125/156/256 124/154/254
f 105/155/255 106/157/257 126/158/258 125/156/256
f 106/157/257 107/159/259 127/160/260 126/158/258
f 107/159/259 108/161/261 128/162/262 127/160/260
f 108/161/261 109/163/263 129/164/264 128/162/262
f 109/163/263 110/165/265 130/166/266 129/164/264
f 110/165/265 91/127/227 111/130/230 130/166/266
s 2
f 92/128/267 91/127/268 131/167/269
f 93/131/270 92/128/267 131/167/269
f 94/133/271 93/131/270 131/167/269
f 95/135/272 94/133/271 131/167/269
f 96/137/273 95/135/272 131/167/269
f 97/139/274 96/137/273 131/167/269
f 98/141/275 97/139/274 131/167/269
f 99/143/276 98/141/275 131/167/269
f 100/145/277 99/143/276 131/167/269
f 101/147/278 100/145/277 131/167/269
f 102/149/279 101/147/278 131/167/269
f 103/151/280 102/149/279 131/167/269
f 104/153/281 103/151/280 131/167/269
f 105/155/282 104/153/281 131/167/269
f 106/157/283 105/155/282 131/167/269
f 107/159/284 106/157/283 131/167/269
f 108/161/285 107/159/284 131/167/269
f 109/163/286 108/161/285 131/167/269
f 110/165/287 109/163/286 131/167/269
f 91/127/268 110/165/287 131/167/269
s 3
f 111/130/288 112/129/289 132/168/290
f 112/129/289 113/132/291 132/168/290
f 113/132/291 114/134/292 132/168/290
f 114/134/292 115/136/293 132/168/290
f 115/136/293 116/138/294 132/168/290
f 116/138/294 117/140/295 132/168/290
f 117/140/295 118/142/296 132/168/290
f 118/142/296 119/144/297 132/168/290
f 119/144/297 120/146/298 132/168/290
f 120/146/298 121/148/299 132/168/290
f 121/148/299 122/150/300 132/168/290
f 122/150/300 123/152/301 132/168/290
f 123/152/301 124/154/302 132/168/290
f 124/154/302 125/156/303 132/168/290
f 125/156/303 126/158/304 132/168/290
f 126/158/304 127/160/305 132/168/290
f 127/160/305 128/162/306 132/168/290
f 128/162/306 129/164/307 132/168/290
f 129/164/307 130/166/308 132/168/290
f 130/166/308 111/130/288 132/168/290
