# This file uses centimeters as units for non-parametric coordinates.

mtllib BoxFood.mtl
g default
v -0.683149 -0.007423 0.634598
v 0.723561 -0.007407 0.632716
v -0.683146 0.216659 0.634669
v 0.723564 0.216675 0.632788
v -0.681276 0.216214 -0.712124
v 0.725433 0.216231 -0.714006
v -0.681279 -0.007867 -0.712195
v 0.725431 -0.007852 -0.714077
vt 0.910399 0.457876
vt 0.910401 0.001833
vt 0.983042 0.457876
vt 0.983044 0.001832
vt 0.389810 0.639743
vt 0.392154 0.279067
vt 0.993150 0.632801
vt 0.995494 0.272126
vt 0.419150 -0.036905
vt 0.943733 0.019057
vt 0.466908 0.125181
vt 0.991492 0.181143
vt 0.395052 0.997759
vt 0.402157 0.752102
vt 0.992810 1.000215
vt 0.999914 0.754558
vt 0.393733 0.152611
vt 1.008116 0.165576
vt 0.386853 0.260783
vt 1.001237 0.273748
vt 0.381414 0.642832
vt 0.939660 0.659501
vt 0.442766 0.744868
vt 1.001013 0.761537
vn 0.001338 -0.000317 0.999999
vn 0.001338 -0.000317 0.999999
vn 0.001338 -0.000317 0.999999
vn 0.000000 0.000000 1.000000
vn 0.000000 0.000000 1.000000
vn 0.000000 0.000000 1.000000
vn 0.000000 1.000000 0.000000
vn 0.000000 1.000000 0.000000
vn 0.000000 1.000000 0.000000
vn 0.000000 1.000000 0.000000
vn 0.000000 1.000000 0.000000
vn 0.000000 1.000000 0.000000
vn 0.000000 0.000000 -1.000000
vn 0.000000 0.000000 -1.000000
vn 0.000000 0.000000 -1.000000
vn 0.000000 0.000000 -1.000000
vn 0.000000 0.000000 -1.000000
vn 0.000000 0.000000 -1.000000
vn 0.000000 -1.000000 0.000000
vn 0.000000 -1.000000 0.000000
vn 0.000000 -1.000000 0.000000
vn 0.000000 -1.000000 0.000000
vn 0.000000 -1.000000 0.000000
vn 0.000000 -1.000000 0.000000
vn 1.000000 0.000000 0.000000
vn 1.000000 0.000000 0.000000
vn 1.000000 0.000000 0.000000
vn 1.000000 0.000000 0.000000
vn 1.000000 0.000000 0.000000
vn 1.000000 0.000000 0.000000
vn -1.000000 0.000000 0.000000
vn -1.000000 0.000000 0.000000
vn -1.000000 0.000000 0.000000
vn -1.000000 0.000000 0.000000
vn -1.000000 0.000000 0.000000
vn -1.000000 0.000000 0.000000
s off
g Testing:Testing14:Testing:Testing14:pCube3 Testing:Testing14:Testing:pasted__group1 Testing:Testing14:Testing:group6 Testing:Testing14:group
usemtl Testing:Testing14:pasted__lambert3SG
f 1/1/1 2/2/2 3/3/3
f 3/3/4 2/2/5 4/4/6
f 3/5/7 4/6/8 5/7/9
f 5/7/10 4/6/11 6/8/12
f 5/9/13 6/10/14 7/11/15
f 7/11/16 6/10/17 8/12/18
f 7/13/19 8/14/20 1/15/21
f 1/15/22 8/14/23 2/16/24
f 2/17/25 8/18/26 4/19/27
f 4/19/28 8/18/29 6/20/30
f 7/21/31 1/22/32 5/23/33
f 5/23/34 1/22/35 3/24/36
