# This file uses centimeters as units for non-parametric coordinates.

mtllib CerealBox2.mtl
g default
v -0.290872 0.010470 0.089103
v 0.279330 0.011955 0.074916
v -0.289386 0.708526 0.093545
v 0.280815 0.710011 0.079358
v -0.275199 0.704084 -0.090012
v 0.295002 0.705570 -0.104199
v -0.276684 0.006028 -0.094453
v 0.293517 0.007513 -0.108641
vt 0.465750 0.290696
vt 0.689771 0.292483
vt 0.689771 0.770569
vt 0.465750 0.768782
vt 0.472165 0.773040
vt 0.685384 0.773103
vt 0.689096 0.839753
vt 0.475877 0.839690
vt 0.758226 0.276719
vt 0.972673 0.274861
vt 0.972673 0.772274
vt 0.758226 0.774133
vt 0.751143 0.236632
vt 0.970371 0.225471
vt 0.969925 0.284192
vt 0.750697 0.295352
vt 0.687212 0.301730
vt 0.755100 0.297923
vt 0.755100 0.774293
vt 0.687212 0.778101
vt 0.406289 0.203398
vt 0.466566 0.208102
vt 0.466565 0.796601
vt 0.406288 0.791897
vn 0.024889 -0.006414 0.999670
vn 0.024889 -0.006414 0.999670
vn 0.024889 -0.006414 0.999670
vn 0.024889 -0.006414 0.999670
vn -0.003212 0.999696 -0.024439
vn -0.003212 0.999696 -0.024439
vn -0.003212 0.999696 -0.024439
vn -0.003212 0.999696 -0.024439
vn -0.024890 0.006414 -0.999670
vn -0.024890 0.006414 -0.999670
vn -0.024890 0.006414 -0.999670
vn -0.024890 0.006414 -0.999670
vn 0.003212 -0.999696 0.024439
vn 0.003212 -0.999696 0.024439
vn 0.003212 -0.999696 0.024439
vn 0.003212 -0.999696 0.024439
vn 0.997018 -0.002612 0.077124
vn 0.997018 -0.002612 0.077124
vn 0.997018 -0.002612 0.077124
vn 0.997018 -0.002612 0.077124
vn -0.997018 0.002612 -0.077124
vn -0.997018 0.002612 -0.077124
vn -0.997018 0.002612 -0.077124
vn -0.997018 0.002612 -0.077124
s off
g pasted__pasted__pasted__pasted__pCube1 pasted__pasted__pasted__group158 pasted__pasted__group170 pasted__group173 group176
usemtl lambert14SG
f 1/1/1 2/2/2 4/3/3 3/4/4
f 3/5/5 4/6/6 6/7/7 5/8/8
f 5/9/9 6/10/10 8/11/11 7/12/12
f 7/13/13 8/14/14 2/15/15 1/16/16
f 2/17/17 8/18/18 6/19/19 4/20/20
f 7/21/21 1/22/22 3/23/23 5/24/24
