# This file uses centimeters as units for non-parametric coordinates.

mtllib CerealBox4.mtl
g default
v -0.304190 0.002721 0.088533
v 0.266012 0.004207 0.074346
v -0.302704 0.700778 0.092975
v 0.267497 0.702263 0.078788
v -0.288517 0.696336 -0.090582
v 0.281685 0.697821 -0.104769
v -0.290002 -0.001720 -0.095023
v 0.280199 -0.000235 -0.109211
vt 0.484510 0.306756
vt 0.683293 0.308604
vt 0.683293 0.803079
vt 0.484510 0.801232
vt 0.495347 0.799030
vt 0.676918 0.799476
vt 0.678560 0.917945
vt 0.496990 0.917498
vt 0.969784 0.813446
vt 0.783456 0.813126
vt 0.789904 0.287237
vt 0.976232 0.287556
vt 0.378213 0.202942
vt 0.678710 0.202218
vt 0.673651 0.299753
vt 0.373154 0.300476
vt 0.396652 0.268542
vt 0.492785 0.253664
vt 0.481309 0.798580
vt 0.385177 0.813457
vt 0.680923 0.296548
vt 0.785872 0.300645
vt 0.785872 0.813287
vt 0.680922 0.809190
vn 0.024889 -0.006414 0.999670
vn 0.024889 -0.006414 0.999670
vn 0.024889 -0.006414 0.999670
vn 0.024889 -0.006414 0.999670
vn -0.003212 0.999696 -0.024439
vn -0.003212 0.999696 -0.024439
vn -0.003212 0.999696 -0.024439
vn -0.003212 0.999696 -0.024439
vn -0.024890 0.006414 -0.999670
vn -0.024890 0.006414 -0.999670
vn -0.024890 0.006414 -0.999670
vn -0.024890 0.006414 -0.999670
vn 0.003212 -0.999696 0.024439
vn 0.003212 -0.999696 0.024439
vn 0.003212 -0.999696 0.024439
vn 0.003212 -0.999696 0.024439
vn 0.997018 -0.002612 0.077124
vn 0.997018 -0.002612 0.077124
vn 0.997018 -0.002612 0.077124
vn 0.997018 -0.002612 0.077124
vn -0.997018 0.002612 -0.077124
vn -0.997018 0.002612 -0.077124
vn -0.997018 0.002612 -0.077124
vn -0.997018 0.002612 -0.077124
s off
g pasted__pasted__pasted__pasted__pasted__pCube1 pasted__pasted__pasted__pasted__group158 pasted__pasted__pasted__group170 pasted__pasted__group172 pasted__group182 group186
usemtl lambert15SG
f 1/1/1 2/2/2 4/3/3 3/4/4
f 3/5/5 4/6/6 6/7/7 5/8/8
f 5/9/9 6/10/10 8/11/11 7/12/12
f 7/13/13 8/14/14 2/15/15 1/16/16
f 2/17/17 8/18/18 6/19/19 4/20/20
f 7/21/21 1/22/22 3/23/23 5/24/24
