# This file uses centimeters as units for non-parametric coordinates.

mtllib CerealBox3.mtl
g default
v -0.288616 0.001481 0.113076
v 0.281586 0.002966 0.098889
v -0.287130 0.699537 0.117518
v 0.283071 0.701022 0.103331
v -0.272943 0.695095 -0.066038
v 0.297258 0.696581 -0.080225
v -0.274428 -0.002961 -0.070480
v 0.295773 -0.001476 -0.084667
vt 0.497695 0.401480
vt 0.154336 0.401904
vt 0.013930 0.398232
vt 0.508865 0.401403
vt 0.153483 0.394513
vt 0.652837 0.405040
vt 0.165142 0.275121
vt 0.508501 0.274698
vt 0.549469 0.383078
vt 0.550502 0.021891
vt 0.513052 0.995235
vt 0.149876 0.985922
vt 0.149785 0.864876
vt 0.512961 0.874189
vt 0.504054 0.855389
vt 0.151097 0.856285
vt 0.155342 0.399203
vt 0.508299 0.398307
vt 0.153483 0.859801
vt 0.013930 0.863520
vt 0.652837 0.860071
vt 0.508864 0.856434
vt 0.990680 0.018286
vt 0.989648 0.379472
vn 0.024889 -0.006414 0.999670
vn 0.024889 -0.006414 0.999670
vn 0.024889 -0.006414 0.999670
vn 0.024889 -0.006414 0.999670
vn -0.003212 0.999696 -0.024439
vn -0.003212 0.999696 -0.024439
vn -0.003212 0.999696 -0.024439
vn -0.003212 0.999696 -0.024439
vn -0.024890 0.006414 -0.999670
vn -0.024890 0.006414 -0.999670
vn -0.024890 0.006414 -0.999670
vn -0.024890 0.006414 -0.999670
vn 0.003212 -0.999696 0.024439
vn 0.003212 -0.999696 0.024439
vn 0.003212 -0.999696 0.024439
vn 0.003212 -0.999696 0.024439
vn 0.997018 -0.002612 0.077124
vn 0.997018 -0.002612 0.077124
vn 0.997018 -0.002612 0.077124
vn 0.997018 -0.002612 0.077124
vn -0.997018 0.002612 -0.077124
vn -0.997018 0.002612 -0.077124
vn -0.997018 0.002612 -0.077124
vn -0.997018 0.002612 -0.077124
s off
g pasted__pasted__pasted__pasted__pCube1 pasted__pasted__pasted__group158 pasted__pasted__group170 pasted__group173 group176
usemtl lambert15SG
f 1/9/1 2/10/2 4/23/3 3/24/4
f 3/11/5 4/12/6 6/13/7 5/14/8
f 5/15/9 6/16/10 8/17/11 7/18/12
f 7/1/13 8/2/14 2/7/15 1/8/16
f 2/3/17 8/5/18 6/19/19 4/20/20
f 7/4/21 1/6/22 3/21/23 5/22/24
