# This file uses centimeters as units for non-parametric coordinates.

mtllib counterTop.mtl
g default
v 1.182630 0.014814 1.051844
v 1.040591 0.014814 0.828829
v 0.819359 0.014814 0.651843
v 0.540590 0.014814 0.538212
v 0.231573 0.014814 0.499057
v -0.077444 0.014814 0.538212
v -0.356212 0.014814 0.651843
v -0.577444 0.014814 0.828829
v -0.719484 0.014814 1.051844
v -0.768427 0.014814 1.299057
v -0.719484 0.014814 1.546271
v -0.577444 0.014814 1.769286
v -0.356212 0.014814 1.946271
v -0.077444 0.014814 2.059903
v 0.231573 0.014814 2.099057
v 0.540590 0.014814 2.059903
v 0.819358 0.014814 1.946271
v 1.040590 0.014814 1.769286
v 1.182630 0.014814 1.546271
v 1.231573 0.014814 1.299057
v 1.182630 2.014814 1.051844
v 1.040591 2.014814 0.828829
v 0.819359 2.014814 0.651843
v 0.540590 2.014814 0.538212
v 0.231573 2.014814 0.499057
v -0.077444 2.014814 0.538212
v -0.356212 2.014814 0.651843
v -0.577444 2.014814 0.828829
v -0.719484 2.014814 1.051844
v -0.768427 2.014814 1.299057
v -0.719484 2.014814 1.546271
v -0.577444 2.014814 1.769286
v -0.356212 2.014814 1.946271
v -0.077444 2.014814 2.059903
v 0.231573 2.014814 2.099057
v 0.540590 2.014814 2.059903
v 0.819358 2.014814 1.946271
v 1.040590 2.014814 1.769286
v 1.182630 2.014814 1.546271
v 1.231573 2.014814 1.299057
v 0.231573 0.014814 1.299057
v 0.231573 2.014814 1.299057
v 1.681120 2.024179 0.992560
v 1.468060 2.024179 0.713792
v 1.136213 2.024179 0.492560
v 0.718060 2.024179 0.350521
v 0.254534 2.024179 0.301577
v -0.208992 2.024179 0.350521
v -0.627144 2.024179 0.492560
v -0.958992 2.024179 0.713792
v -1.172051 2.024179 0.992561
v -1.245466 2.024179 1.301578
v -1.172051 2.024179 1.610595
v -0.958992 2.024179 1.889363
v -0.627144 2.024179 2.110595
v -0.208991 2.024179 2.252634
v 0.254534 2.024179 2.301578
v 0.718060 2.024179 2.252634
v 1.136212 2.024179 2.110595
v 1.468060 2.024179 1.889363
v 1.681119 2.024179 1.610595
v 1.754534 2.024179 1.301578
v 1.681120 2.124179 0.992560
v 1.468060 2.124179 0.713792
v 1.136213 2.124179 0.492560
v 0.718060 2.124179 0.350521
v 0.254534 2.124179 0.301577
v -0.208992 2.124179 0.350521
v -0.627144 2.124179 0.492560
v -0.958992 2.124179 0.713792
v -1.172051 2.124179 0.992561
v -1.245466 2.124179 1.301578
v -1.172051 2.124179 1.610595
v -0.958992 2.124179 1.889363
v -0.627144 2.124179 2.110595
v -0.208991 2.124179 2.252634
v 0.254534 2.124179 2.301578
v 0.718060 2.124179 2.252634
v 1.136212 2.124179 2.110595
v 1.468060 2.124179 1.889363
v 1.681119 2.124179 1.610595
v 1.754534 2.124179 1.301578
v 0.254534 2.024179 1.301578
v 0.254534 2.124179 1.301578
vt 0.631243 0.377692
vt 0.589259 0.295292
vt 0.523866 0.229899
vt 0.441466 0.187915
vt 0.350125 0.173448
vt 0.258784 0.187915
vt 0.176384 0.229899
vt 0.110991 0.295292
vt 0.069006 0.377692
vt 0.054539 0.469033
vt 0.069006 0.560374
vt 0.110991 0.642774
vt 0.176384 0.708167
vt 0.258784 0.750152
vt 0.350125 0.764619
vt 0.441466 0.750152
vt 0.523866 0.708167
vt 0.589258 0.642774
vt 0.631243 0.560374
vt 0.645710 0.469033
vt 0.092296 0.131251
vt 0.134044 0.131251
vt 0.175792 0.131251
vt 0.217540 0.131251
vt 0.259287 0.131251
vt 0.301035 0.131251
vt 0.342783 0.131251
vt 0.384531 0.131251
vt 0.426279 0.131251
vt 0.468027 0.131251
vt 0.509774 0.131251
vt 0.551522 0.131251
vt 0.593270 0.131251
vt 0.635018 0.131251
vt 0.676766 0.131251
vt 0.718513 0.131251
vt 0.760261 0.131251
vt 0.802009 0.131251
vt 0.843757 0.131251
vt 0.885505 0.131251
vt 0.927253 0.131251
vt 0.092296 0.635101
vt 0.134044 0.635101
vt 0.175792 0.635101
vt 0.217540 0.635101
vt 0.259287 0.635101
vt 0.301035 0.635101
vt 0.342783 0.635101
vt 0.384531 0.635101
vt 0.426279 0.635101
vt 0.468027 0.635101
vt 0.509774 0.635101
vt 0.551522 0.635101
vt 0.593270 0.635101
vt 0.635018 0.635101
vt 0.676766 0.635101
vt 0.718513 0.635101
vt 0.760261 0.635101
vt 0.802009 0.635101
vt 0.843757 0.635101
vt 0.885505 0.635101
vt 0.927253 0.635101
vt 0.487790 0.404217
vt 0.457984 0.345721
vt 0.411561 0.299297
vt 0.353064 0.269491
vt 0.288220 0.259221
vt 0.223375 0.269491
vt 0.164878 0.299297
vt 0.118455 0.345721
vt 0.088649 0.404217
vt 0.078379 0.469062
vt 0.088649 0.533906
vt 0.118455 0.592403
vt 0.164879 0.638826
vt 0.223375 0.668632
vt 0.288220 0.678902
vt 0.353064 0.668632
vt 0.411561 0.638826
vt 0.457984 0.592403
vt 0.487790 0.533906
vt 0.498060 0.469062
vt 0.350125 0.457210
vt 0.288220 0.460668
vt 0.101790 0.166482
vt 0.143240 0.166482
vt 0.143240 0.606387
vt 0.101790 0.606387
vt 0.184690 0.166482
vt 0.184690 0.606387
vt 0.226140 0.166482
vt 0.226140 0.606387
vt 0.267590 0.166482
vt 0.267590 0.606387
vt 0.309040 0.166482
vt 0.309040 0.606387
vt 0.350490 0.166482
vt 0.350490 0.606387
vt 0.391940 0.166482
vt 0.391940 0.606387
vt 0.433390 0.166482
vt 0.433390 0.606387
vt 0.474841 0.166482
vt 0.474841 0.606387
vt 0.516291 0.166482
vt 0.516291 0.606387
vt 0.557741 0.166482
vt 0.557741 0.606387
vt 0.599191 0.166482
vt 0.599191 0.606387
vt 0.640641 0.166482
vt 0.640641 0.606387
vt 0.682091 0.166482
vt 0.682091 0.606387
vt 0.723541 0.166482
vt 0.723541 0.606387
vt 0.764991 0.166482
vt 0.764991 0.606387
vt 0.806441 0.166482
vt 0.806441 0.606387
vt 0.847891 0.166482
vt 0.847891 0.606387
vt 0.889341 0.166482
vt 0.889341 0.606387
vt 0.930792 0.166482
vt 0.930792 0.606387
vt 0.554548 0.278461
vt 0.592727 0.353391
vt 0.337092 0.425700
vt 0.495083 0.218996
vt 0.420153 0.180817
vt 0.337092 0.167661
vt 0.254031 0.180817
vt 0.179101 0.218996
vt 0.119636 0.278461
vt 0.081457 0.353391
vt 0.068302 0.436452
vt 0.081457 0.519512
vt 0.119636 0.594442
vt 0.179101 0.653907
vt 0.254031 0.692086
vt 0.337092 0.705242
vt 0.420153 0.692086
vt 0.495083 0.653907
vt 0.554548 0.594442
vt 0.592727 0.519512
vt 0.605882 0.436452
vt 0.921417 0.664553
vt 0.857019 0.790942
vt 0.490225 0.506315
vt 0.756717 0.891244
vt 0.630328 0.955642
vt 0.490225 0.977832
vt 0.350123 0.955642
vt 0.223734 0.891244
vt 0.123432 0.790942
vt 0.059034 0.664553
vt 0.036844 0.524450
vt 0.059034 0.384348
vt 0.123432 0.257959
vt 0.223734 0.157657
vt 0.350123 0.093259
vt 0.490225 0.071069
vt 0.630328 0.093259
vt 0.756717 0.157657
vt 0.857020 0.257959
vt 0.921418 0.384348
vt 0.943607 0.524450
vn 0.926499 0.000000 -0.376296
vn 0.740276 0.000000 -0.672303
vn 0.740276 0.000000 -0.672303
vn 0.926499 0.000000 -0.376296
vn 0.502516 0.000000 -0.864568
vn 0.502516 0.000000 -0.864568
vn 0.251575 0.000000 -0.967838
vn 0.251575 0.000000 -0.967838
vn 0.000000 0.000000 -1.000000
vn 0.000000 0.000000 -1.000000
vn -0.251576 0.000000 -0.967838
vn -0.251576 0.000000 -0.967838
vn -0.502517 0.000000 -0.864568
vn -0.502517 0.000000 -0.864568
vn -0.740277 0.000000 -0.672303
vn -0.740277 0.000000 -0.672303
vn -0.926499 0.000000 -0.376297
vn -0.926499 0.000000 -0.376297
vn -1.000000 0.000000 0.000000
vn -1.000000 0.000000 0.000000
vn -0.926499 0.000000 0.376297
vn -0.926499 0.000000 0.376297
vn -0.740276 0.000000 0.672303
vn -0.740276 0.000000 0.672303
vn -0.502516 0.000000 0.864568
vn -0.502516 0.000000 0.864568
vn -0.251576 0.000000 0.967838
vn -0.251576 0.000000 0.967838
vn 0.000000 0.000000 1.000000
vn 0.000000 0.000000 1.000000
vn 0.251576 0.000000 0.967838
vn 0.251576 0.000000 0.967838
vn 0.502516 0.000000 0.864568
vn 0.502516 0.000000 0.864568
vn 0.740276 0.000000 0.672303
vn 0.740276 0.000000 0.672303
vn 0.926499 0.000000 0.376297
vn 0.926499 0.000000 0.376297
vn 1.000000 0.000000 0.000001
vn 1.000000 0.000000 0.000001
vn 0.000000 -1.000000 0.000000
vn 0.000000 -1.000000 0.000000
vn 0.000000 -1.000000 0.000000
vn 0.000000 -1.000000 0.000000
vn 0.000000 -1.000000 0.000000
vn 0.000000 -1.000000 0.000000
vn 0.000000 -1.000000 0.000000
vn 0.000000 -1.000000 0.000000
vn 0.000000 -1.000000 0.000000
vn 0.000000 -1.000000 -0.000000
vn 0.000000 -1.000000 0.000000
vn 0.000000 -1.000000 0.000000
vn 0.000000 -1.000000 0.000000
vn 0.000000 -1.000000 0.000000
vn 0.000000 -1.000000 -0.000000
vn 0.000000 -1.000000 0.000000
vn 0.000000 -1.000000 0.000000
vn 0.000000 -1.000000 0.000000
vn 0.000000 -1.000000 0.000000
vn 0.000000 -1.000000 0.000000
vn 0.000000 -1.000000 0.000000
vn 0.000000 1.000000 0.000001
vn 0.000000 1.000000 0.000000
vn 0.000000 1.000000 -0.000000
vn 0.000000 1.000000 0.000000
vn 0.000000 1.000000 0.000000
vn 0.000000 1.000000 0.000000
vn 0.000000 1.000000 -0.000001
vn 0.000000 1.000000 -0.000000
vn 0.000000 1.000000 0.000000
vn 0.000000 1.000000 0.000000
vn 0.000000 1.000000 0.000000
vn 0.000000 1.000000 0.000000
vn 0.000000 1.000000 0.000000
vn 0.000000 1.000000 0.000000
vn 0.000000 1.000000 0.000000
vn 0.000000 1.000000 -0.000000
vn 0.000000 1.000000 -0.000000
vn 0.000000 1.000000 -0.000000
vn 0.000000 1.000000 0.000000
vn 0.000000 1.000000 -0.000001
vn 0.000000 1.000000 0.000000
vn 0.898920 0.000000 -0.438114
vn 0.676093 0.000000 -0.736816
vn 0.676093 0.000000 -0.736816
vn 0.898920 0.000000 -0.438114
vn 0.435919 0.000000 -0.899986
vn 0.435919 0.000000 -0.899986
vn 0.211703 0.000000 -0.977334
vn 0.211703 0.000000 -0.977334
vn -0.000000 0.000000 -1.000000
vn -0.000000 0.000000 -1.000000
vn -0.211703 0.000000 -0.977334
vn -0.211703 0.000000 -0.977334
vn -0.435919 0.000000 -0.899986
vn -0.435919 0.000000 -0.899986
vn -0.676093 0.000000 -0.736816
vn -0.676093 0.000000 -0.736816
vn -0.898919 0.000000 -0.438115
vn -0.898919 0.000000 -0.438115
vn -1.000000 0.000000 -0.000000
vn -1.000000 0.000000 -0.000000
vn -0.898919 0.000000 0.438115
vn -0.898919 0.000000 0.438115
vn -0.676094 0.000000 0.736816
vn -0.676094 0.000000 0.736816
vn -0.435919 0.000000 0.899986
vn -0.435919 0.000000 0.899986
vn -0.211703 0.000000 0.977334
vn -0.211703 0.000000 0.977334
vn 0.000000 0.000000 1.000000
vn 0.000000 0.000000 1.000000
vn 0.211703 0.000000 0.977334
vn 0.211703 0.000000 0.977334
vn 0.435919 0.000000 0.899986
vn 0.435919 0.000000 0.899986
vn 0.676093 0.000000 0.736816
vn 0.676093 0.000000 0.736816
vn 0.898919 0.000000 0.438115
vn 0.898919 0.000000 0.438115
vn 1.000000 0.000000 0.000001
vn 1.000000 0.000000 0.000001
vn 0.000000 -1.000000 0.000000
vn 0.000000 -1.000000 -0.000000
vn 0.000000 -1.000000 0.000000
vn 0.000000 -1.000000 -0.000001
vn 0.000000 -1.000000 0.000000
vn 0.000000 -1.000000 0.000000
vn 0.000000 -1.000000 0.000000
vn 0.000000 -1.000000 0.000001
vn 0.000000 -1.000000 0.000001
vn 0.000000 -1.000000 0.000000
vn 0.000000 -1.000000 0.000000
vn 0.000000 -1.000000 0.000000
vn 0.000000 -1.000000 -0.000000
vn 0.000000 -1.000000 -0.000000
vn 0.000000 -1.000000 0.000000
vn 0.000000 -1.000000 0.000000
vn 0.000000 -1.000000 0.000000
vn 0.000000 -1.000000 0.000001
vn 0.000000 -1.000000 0.000000
vn 0.000000 -1.000000 0.000000
vn 0.000000 -1.000000 -0.000001
vn 0.000000 1.000000 0.000000
vn 0.000000 1.000000 0.000000
vn 0.000000 1.000000 0.000000
vn 0.000000 1.000000 0.000000
vn 0.000000 1.000000 0.000001
vn 0.000000 1.000000 0.000000
vn 0.000000 1.000000 -0.000000
vn 0.000000 1.000000 -0.000000
vn 0.000000 1.000000 -0.000001
vn 0.000000 1.000000 -0.000000
vn 0.000000 1.000000 0.000000
vn 0.000000 1.000000 0.000000
vn 0.000000 1.000000 0.000001
vn 0.000000 1.000000 0.000000
vn 0.000000 1.000000 0.000000
vn 0.000000 1.000000 0.000000
vn 0.000000 1.000000 -0.000000
vn 0.000000 1.000000 -0.000000
vn 0.000000 1.000000 0.000000
vn 0.000000 1.000000 0.000001
vn 0.000000 1.000000 0.000001
s 1
g pCylinder3
usemtl initialShadingGroup
f 1/21/1 2/22/2 22/43/3 21/42/4
f 2/22/2 3/23/5 23/44/6 22/43/3
f 3/23/5 4/24/7 24/45/8 23/44/6
f 4/24/7 5/25/9 25/46/10 24/45/8
f 5/25/9 6/26/11 26/47/12 25/46/10
f 6/26/11 7/27/13 27/48/14 26/47/12
f 7/27/13 8/28/15 28/49/16 27/48/14
f 8/28/15 9/29/17 29/50/18 28/49/16
f 9/29/17 10/30/19 30/51/20 29/50/18
f 10/30/19 11/31/21 31/52/22 30/51/20
f 11/31/21 12/32/23 32/53/24 31/52/22
f 12/32/23 13/33/25 33/54/26 32/53/24
f 13/33/25 14/34/27 34/55/28 33/54/26
f 14/34/27 15/35/29 35/56/30 34/55/28
f 15/35/29 16/36/31 36/57/32 35/56/30
f 16/36/31 17/37/33 37/58/34 36/57/32
f 17/37/33 18/38/35 38/59/36 37/58/34
f 18/38/35 19/39/37 39/60/38 38/59/36
f 19/39/37 20/40/39 40/61/40 39/60/38
f 20/40/39 1/41/1 21/62/4 40/61/40
s 2
f 2/2/41 1/1/42 41/83/43
f 3/3/44 2/2/41 41/83/43
f 4/4/45 3/3/44 41/83/43
f 5/5/46 4/4/45 41/83/43
f 6/6/47 5/5/46 41/83/43
f 7/7/48 6/6/47 41/83/43
f 8/8/49 7/7/48 41/83/43
f 9/9/50 8/8/49 41/83/43
f 10/10/51 9/9/50 41/83/43
f 11/11/52 10/10/51 41/83/43
f 12/12/53 11/11/52 41/83/43
f 13/13/54 12/12/53 41/83/43
f 14/14/55 13/13/54 41/83/43
f 15/15/56 14/14/55 41/83/43
f 16/16/57 15/15/56 41/83/43
f 17/17/58 16/16/57 41/83/43
f 18/18/59 17/17/58 41/83/43
f 19/19/60 18/18/59 41/83/43
f 20/20/61 19/19/60 41/83/43
f 1/1/42 20/20/61 41/83/43
s 3
f 21/81/62 22/80/63 42/84/64
f 22/80/63 23/79/65 42/84/64
f 23/79/65 24/78/66 42/84/64
f 24/78/66 25/77/67 42/84/64
f 25/77/67 26/76/68 42/84/64
f 26/76/68 27/75/69 42/84/64
f 27/75/69 28/74/70 42/84/64
f 28/74/70 29/73/71 42/84/64
f 29/73/71 30/72/72 42/84/64
f 30/72/72 31/71/73 42/84/64
f 31/71/73 32/70/74 42/84/64
f 32/70/74 33/69/75 42/84/64
f 33/69/75 34/68/76 42/84/64
f 34/68/76 35/67/77 42/84/64
f 35/67/77 36/66/78 42/84/64
f 36/66/78 37/65/79 42/84/64
f 37/65/79 38/64/80 42/84/64
f 38/64/80 39/63/81 42/84/64
f 39/63/81 40/82/82 42/84/64
f 40/82/82 21/81/62 42/84/64
s 4
f 43/85/83 44/86/84 64/87/85 63/88/86
f 44/86/84 45/89/87 65/90/88 64/87/85
f 45/89/87 46/91/89 66/92/90 65/90/88
f 46/91/89 47/93/91 67/94/92 66/92/90
f 47/93/91 48/95/93 68/96/94 67/94/92
f 48/95/93 49/97/95 69/98/96 68/96/94
f 49/97/95 50/99/97 70/100/98 69/98/96
f 50/99/97 51/101/99 71/102/100 70/100/98
f 51/101/99 52/103/101 72/104/102 71/102/100
f 52/103/101 53/105/103 73/106/104 72/104/102
f 53/105/103 54/107/105 74/108/106 73/106/104
f 54/107/105 55/109/107 75/110/108 74/108/106
f 55/109/107 56/111/109 76/112/110 75/110/108
f 56/111/109 57/113/111 77/114/112 76/112/110
f 57/113/111 58/115/113 78/116/114 77/114/112
f 58/115/113 59/117/115 79/118/116 78/116/114
f 59/117/115 60/119/117 80/120/118 79/118/116
f 60/119/117 61/121/119 81/122/120 80/120/118
f 61/121/119 62/123/121 82/124/122 81/122/120
f 62/123/121 43/125/83 63/126/86 82/124/122
s 5
f 44/127/123 43/128/124 83/129/125
f 45/130/126 44/127/123 83/129/125
f 46/131/127 45/130/126 83/129/125
f 47/132/128 46/131/127 83/129/125
f 48/133/129 47/132/128 83/129/125
f 49/134/130 48/133/129 83/129/125
f 50/135/131 49/134/130 83/129/125
f 51/136/132 50/135/131 83/129/125
f 52/137/133 51/136/132 83/129/125
f 53/138/134 52/137/133 83/129/125
f 54/139/135 53/138/134 83/129/125
f 55/140/136 54/139/135 83/129/125
f 56/141/137 55/140/136 83/129/125
f 57/142/138 56/141/137 83/129/125
f 58/143/139 57/142/138 83/129/125
f 59/144/140 58/143/139 83/129/125
f 60/145/141 59/144/140 83/129/125
f 61/146/142 60/145/141 83/129/125
f 62/147/143 61/146/142 83/129/125
f 43/128/124 62/147/143 83/129/125
s 6
f 63/148/144 64/149/145 84/150/146
f 64/149/145 65/151/147 84/150/146
f 65/151/147 66/152/148 84/150/146
f 66/152/148 67/153/149 84/150/146
f 67/153/149 68/154/150 84/150/146
f 68/154/150 69/155/151 84/150/146
f 69/155/151 70/156/152 84/150/146
f 70/156/152 71/157/153 84/150/146
f 71/157/153 72/158/154 84/150/146
f 72/158/154 73/159/155 84/150/146
f 73/159/155 74/160/156 84/150/146
f 74/160/156 75/161/157 84/150/146
f 75/161/157 76/162/158 84/150/146
f 76/162/158 77/163/159 84/150/146
f 77/163/159 78/164/160 84/150/146
f 78/164/160 79/165/161 84/150/146
f 79/165/161 80/166/162 84/150/146
f 80/166/162 81/167/163 84/150/146
f 81/167/163 82/168/164 84/150/146
f 82/168/164 63/148/144 84/150/146
